<svg width="1920" height="647" viewBox="0 0 1920 647" fill="none" xmlns="http://www.w3.org/2000/svg">
<path d="M49.5075 583.12C34.6196 581.517 19.5537 579.879 4.30964 578.205C2.81374 578.027 1.35344 577.564 0 576.994V602.246C522.536 654.318 868.874 669.42 1112.6 601.071C1294.64 549.889 1434.4 450.91 1546.02 372.731C1636.74 309.19 1712.82 265.488 1776.75 270.831C1831.6 275.461 1878.76 314.996 1920 349.046V325.004C1919.18 324.292 1918.33 323.579 1917.51 322.832C1916.4 321.87 1915.51 317.916 1915.51 313.927V229.266C1915.51 225.277 1916.4 222.997 1917.51 224.137C1918.33 224.992 1919.18 225.847 1920 226.702V203.372C1878.72 159.492 1831.6 108.774 1776.75 91.108C1712.82 70.5927 1636.77 96.2012 1546.02 138.158C1434.4 189.767 1294.64 255.516 1112.6 263.423C868.91 273.787 522.571 176.304 0.0356169 0V27.3538C1.35344 27.3538 2.81373 27.5675 4.34526 28.0661C19.5893 33.0525 34.6552 37.9676 49.5431 42.8115C55.9898 44.9129 61.1186 51.2527 61.1542 56.987V86.2285C61.1542 91.9984 56.0254 95.0615 49.5431 93.1026C34.6552 88.5436 19.5893 83.949 4.34526 79.2832C2.84935 78.8202 1.38906 78.1079 0.0356169 77.2887V96.4862C79.0695 120.136 153.331 142.183 223.282 162.449C238.526 166.865 250.814 182.252 250.814 196.961V510.034C250.814 524.744 238.562 535.037 223.282 533.078C153.331 524.067 79.0695 513.916 0.0356169 502.946V527.237C1.35344 526.916 2.81373 526.845 4.34526 527.059C19.5893 529.018 34.6552 530.977 49.5431 532.9C55.9898 533.719 61.1186 539.062 61.1542 544.796V574.073C61.1542 579.807 56.0254 583.903 49.5431 583.227L49.5075 583.12ZM159.457 116.432C159.457 121.988 154.72 124.98 148.772 123.199C135.059 119.067 121.169 114.864 107.136 110.626C100.938 108.738 95.9875 102.684 95.9519 96.9848V68.1707C95.9519 62.5433 100.938 59.5515 107.136 61.546C121.169 66.105 135.024 70.5571 148.772 74.9736C154.72 76.8969 159.457 82.9161 159.457 88.4011V116.467V116.432ZM250.28 143.892C250.28 149.235 245.899 152.191 240.414 150.588C227.734 146.848 214.912 143.037 201.948 139.155C196.249 137.446 191.655 131.676 191.655 126.226V98.5519C191.655 93.1382 196.249 90.182 201.948 91.9984C214.912 96.13 227.734 100.19 240.414 104.179C245.899 105.925 250.28 111.623 250.28 116.895V143.892ZM412.551 609.441C412.551 614.356 408.775 618.06 404.038 617.668C393.104 616.778 382.062 615.887 370.914 614.926C365.999 614.498 362.046 610.046 362.046 605.024V579.309C362.046 574.287 365.999 570.583 370.914 571.117C382.062 572.292 393.104 573.432 404.038 574.536C408.775 574.999 412.551 579.416 412.551 584.295V609.405V609.441ZM485.316 615.033C485.316 619.77 481.79 623.403 477.373 623.118C467.187 622.441 456.894 621.693 446.493 620.945C441.934 620.589 438.23 616.35 438.23 611.506V586.682C438.23 581.838 441.899 578.205 446.493 578.632C456.894 579.594 467.151 580.555 477.373 581.446C481.79 581.838 485.316 586.005 485.316 590.742V614.997V615.033ZM553.273 619.342C553.273 623.937 549.961 627.498 545.829 627.285C536.319 626.786 526.703 626.216 517.015 625.646C512.741 625.397 509.322 621.337 509.322 616.671V592.701C509.322 587.999 512.741 584.473 517.015 584.794C526.703 585.577 536.319 586.325 545.829 587.002C549.961 587.323 553.273 591.276 553.273 595.871V619.307V619.342ZM616.849 622.37C616.849 626.822 613.75 630.312 609.904 630.17C600.999 629.849 591.988 629.493 582.906 629.066C578.917 628.888 575.711 625.041 575.711 620.518V597.331C575.711 592.808 578.917 589.317 582.906 589.566C591.988 590.136 600.964 590.706 609.904 591.205C613.786 591.419 616.849 595.23 616.849 599.646V622.334V622.37ZM676.472 624.151C676.472 628.46 673.587 631.915 669.954 631.844C661.584 631.701 653.143 631.523 644.63 631.274C640.89 631.167 637.863 627.498 637.863 623.118V600.679C637.863 596.298 640.89 592.843 644.63 593.021C653.143 593.413 661.584 593.769 669.954 594.09C673.587 594.232 676.472 597.83 676.472 602.139V624.115V624.151ZM732.497 624.685C732.497 628.852 729.755 632.271 726.371 632.271C718.5 632.271 710.593 632.271 702.579 632.235C699.053 632.235 696.239 628.709 696.239 624.471V602.709C696.239 598.471 699.053 595.052 702.579 595.158C710.593 595.372 718.5 595.55 726.371 595.693C729.79 595.764 732.497 599.183 732.497 603.35V624.685ZM785.246 624.008C785.246 628.068 782.681 631.452 779.44 631.523C772.032 631.701 764.552 631.879 757.037 631.986C753.725 632.022 751.053 628.709 751.053 624.578V603.457C751.053 599.326 753.725 595.978 757.037 595.978C764.552 595.978 772.032 595.978 779.44 595.978C782.646 595.978 785.21 599.254 785.246 603.279V623.972V624.008ZM834.967 622.156C834.967 626.074 832.545 629.422 829.518 629.6C822.537 629.956 815.484 630.277 808.397 630.562C805.262 630.668 802.769 627.498 802.769 623.509V603.03C802.769 599.041 805.298 595.693 808.397 595.657C815.484 595.515 822.537 595.336 829.518 595.123C832.545 595.016 834.967 598.15 834.967 602.104V622.227V622.156ZM881.981 619.164C881.981 622.975 879.702 626.288 876.817 626.537C870.228 627.071 863.567 627.534 856.836 627.997C853.879 628.175 851.529 625.148 851.529 621.266V601.356C851.529 597.473 853.915 594.197 856.836 594.054C863.532 593.734 870.192 593.413 876.817 593.021C879.702 592.843 881.981 595.835 881.981 599.646V619.2V619.164ZM926.431 615.104C926.431 618.808 924.259 622.085 921.552 622.405C915.283 623.082 909.014 623.723 902.639 624.329C899.861 624.578 897.617 621.693 897.617 617.918V598.542C897.617 594.767 899.861 591.49 902.639 591.312C908.979 590.849 915.283 590.314 921.552 589.78C924.259 589.531 926.431 592.38 926.431 596.12V615.139V615.104ZM968.53 609.975C968.53 613.608 966.464 616.849 963.9 617.205C957.988 618.024 952.004 618.808 945.985 619.556C943.349 619.876 941.212 617.134 941.212 613.43V594.589C941.212 590.92 943.349 587.679 945.985 587.394C952.004 586.753 957.988 586.112 963.9 585.399C966.464 585.114 968.53 587.821 968.53 591.419V609.939V609.975ZM1008.53 603.849C1008.53 607.375 1006.57 610.616 1004.11 611.008C998.484 611.97 992.821 612.896 987.122 613.786C984.629 614.178 982.599 611.542 982.599 607.945V589.566C982.599 585.969 984.629 582.764 987.122 582.443C992.821 581.66 998.484 580.876 1004.11 580.021C1006.57 579.665 1008.53 582.229 1008.53 585.755V603.813V603.849ZM1046.5 596.832C1046.5 600.287 1044.64 603.457 1042.33 603.956C1036.99 605.024 1031.61 606.093 1026.16 607.126C1023.77 607.589 1021.85 605.06 1021.85 601.569V583.654C1021.85 580.164 1023.77 576.994 1026.16 576.566C1031.57 575.64 1036.99 574.714 1042.33 573.717C1044.64 573.29 1046.5 575.747 1046.5 579.202V596.797V596.832ZM1082.61 588.89C1082.61 592.238 1080.83 595.408 1078.62 595.942C1073.53 597.153 1068.4 598.328 1063.24 599.468C1060.96 599.967 1059.14 597.58 1059.14 594.161V576.709C1059.14 573.29 1060.96 570.155 1063.24 569.692C1068.4 568.659 1073.53 567.591 1078.62 566.487C1080.83 566.024 1082.61 568.374 1082.61 571.722V588.89ZM1117.05 580.164C1117.05 583.44 1115.38 586.575 1113.24 587.145C1108.4 588.462 1103.52 589.745 1098.6 591.027C1096.43 591.561 1094.72 589.282 1094.72 585.969V568.944C1094.72 565.632 1096.47 562.498 1098.6 561.963C1103.52 560.788 1108.4 559.613 1113.24 558.402C1115.34 557.867 1117.05 560.111 1117.05 563.388V580.164ZM1149.86 570.654C1149.86 573.859 1148.25 576.958 1146.22 577.599C1141.59 579.024 1136.93 580.413 1132.26 581.802C1130.2 582.408 1128.56 580.235 1128.56 576.958V560.325C1128.56 557.084 1130.2 553.985 1132.26 553.415C1136.96 552.133 1141.59 550.851 1146.22 549.497C1148.22 548.928 1149.86 551.065 1149.86 554.27V570.654ZM1181.2 560.503C1181.2 563.637 1179.67 566.736 1177.74 567.377C1173.33 568.909 1168.88 570.369 1164.39 571.865C1162.43 572.506 1160.83 570.405 1160.83 567.235V550.993C1160.83 547.823 1162.39 544.76 1164.39 544.155C1168.88 542.766 1173.33 541.377 1177.74 539.952C1179.67 539.347 1181.2 541.377 1181.2 544.511V560.539V560.503ZM1211.15 549.711C1211.15 552.774 1209.69 555.837 1207.84 556.514C1203.6 558.117 1199.36 559.684 1195.09 561.251C1193.2 561.928 1191.71 559.933 1191.71 556.835V540.949C1191.71 537.851 1193.2 534.788 1195.09 534.147C1199.36 532.686 1203.64 531.19 1207.84 529.694C1209.69 529.053 1211.15 531.012 1211.15 534.075V549.747V549.711ZM1267.21 526.596C1267.21 529.516 1265.86 532.544 1264.19 533.292C1260.3 535.037 1256.42 536.747 1252.5 538.456C1250.79 539.204 1249.41 537.352 1249.41 534.396V519.188C1249.41 516.231 1250.79 513.239 1252.5 512.527C1256.42 510.924 1260.3 509.286 1264.19 507.612C1265.86 506.9 1267.21 508.716 1267.21 511.637V526.631V526.596ZM1293.5 514.379C1293.5 517.264 1292.22 520.22 1290.58 521.004C1286.87 522.785 1283.13 524.566 1279.36 526.311C1277.72 527.094 1276.4 525.314 1276.37 522.393V507.505C1276.37 504.585 1277.68 501.628 1279.36 500.88C1283.13 499.206 1286.84 497.497 1290.58 495.787C1292.18 495.039 1293.5 496.784 1293.5 499.669V514.344V514.379ZM1318.72 501.878C1318.72 504.691 1317.47 507.612 1315.94 508.431C1312.38 510.248 1308.78 512.064 1305.18 513.881C1303.61 514.664 1302.33 512.955 1302.33 510.105V495.538C1302.33 492.689 1303.61 489.768 1305.18 488.984C1308.78 487.239 1312.38 485.53 1315.94 483.749C1317.5 483.001 1318.72 484.675 1318.72 487.488V501.878ZM1342.94 489.091C1342.94 491.834 1341.76 494.754 1340.26 495.573C1336.84 497.426 1333.39 499.278 1329.93 501.13C1328.4 501.949 1327.19 500.311 1327.19 497.497V483.214C1327.19 480.436 1328.4 477.516 1329.93 476.732C1333.39 474.951 1336.84 473.171 1340.26 471.39C1341.76 470.606 1342.94 472.244 1342.94 474.987V489.091ZM1366.23 476.127C1366.23 478.834 1365.09 481.683 1363.66 482.502C1360.39 484.39 1357.08 486.242 1353.73 488.13C1352.27 488.949 1351.09 487.346 1351.09 484.639V470.642C1351.09 467.899 1352.27 465.05 1353.73 464.266C1357.04 462.485 1360.35 460.669 1363.66 458.852C1365.09 458.069 1366.23 459.636 1366.23 462.343V476.162V476.127ZM1388.6 463.055C1388.6 465.691 1387.49 468.54 1386.1 469.359C1382.93 471.247 1379.76 473.135 1376.56 475.023C1375.17 475.842 1374.03 474.31 1374.03 471.639V457.926C1374.03 455.255 1375.17 452.406 1376.56 451.622C1379.76 449.806 1382.93 447.989 1386.1 446.173C1387.49 445.389 1388.6 446.921 1388.6 449.556V463.126V463.055ZM1410.11 449.948C1410.11 452.548 1409.04 455.326 1407.72 456.146C1404.69 458.033 1401.63 459.921 1398.53 461.809C1397.18 462.628 1396.11 461.132 1396.11 458.496V445.033C1396.11 442.397 1397.18 439.619 1398.53 438.8C1401.6 436.984 1404.66 435.167 1407.72 433.315C1409.04 432.532 1410.11 433.992 1410.11 436.592V449.877V449.948ZM1430.84 436.877C1430.84 439.441 1429.8 442.184 1428.52 443.003C1425.6 444.891 1422.65 446.778 1419.69 448.666C1418.37 449.485 1417.34 448.025 1417.34 445.461V432.247C1417.34 429.682 1418.37 426.904 1419.69 426.121C1422.65 424.304 1425.6 422.488 1428.52 420.636C1429.8 419.852 1430.84 421.277 1430.84 423.841V436.877ZM1450.85 423.877C1450.85 426.37 1449.86 429.077 1448.65 429.896C1445.83 431.748 1442.98 433.636 1440.13 435.488C1438.89 436.307 1437.89 434.882 1437.89 432.353V419.389C1437.89 416.86 1438.89 414.153 1440.13 413.37C1442.98 411.553 1445.83 409.737 1448.65 407.956C1449.89 407.172 1450.85 408.597 1450.85 411.09V423.912V423.877ZM1470.12 411.055C1470.12 413.512 1469.16 416.183 1467.99 416.967C1465.24 418.819 1462.54 420.636 1459.76 422.488C1458.55 423.307 1457.59 421.918 1457.59 419.425V406.674C1457.59 404.181 1458.55 401.509 1459.76 400.726C1462.5 398.945 1465.24 397.164 1467.99 395.383C1469.16 394.6 1470.12 395.989 1470.12 398.446V411.019V411.055ZM1488.72 398.482C1488.72 400.904 1487.79 403.504 1486.65 404.287C1484.01 406.104 1481.38 407.885 1478.71 409.701C1477.53 410.485 1476.61 409.131 1476.61 406.674V394.172C1476.61 391.715 1477.53 389.115 1478.71 388.331C1481.38 386.586 1484.01 384.805 1486.65 383.06C1487.79 382.312 1488.72 383.665 1488.72 386.087V398.446V398.482ZM1506.67 386.158C1506.67 388.545 1505.78 391.074 1504.67 391.857C1502.14 393.602 1499.58 395.383 1497.01 397.164C1495.87 397.948 1494.98 396.594 1494.98 394.208V381.92C1494.98 379.534 1495.87 376.934 1497.01 376.186C1499.58 374.476 1502.14 372.766 1504.67 371.057C1505.78 370.309 1506.67 371.662 1506.67 374.049V386.194V386.158ZM1524.01 374.191C1524.01 376.542 1523.16 379.035 1522.09 379.783C1519.63 381.493 1517.17 383.202 1514.68 384.912C1513.58 385.66 1512.72 384.342 1512.72 381.991V369.917C1512.72 367.566 1513.61 365.038 1514.68 364.29C1517.17 362.616 1519.63 360.942 1522.09 359.303C1523.16 358.591 1524.01 359.909 1524.01 362.259V374.191ZM1540.79 362.651C1540.79 364.931 1539.97 367.388 1538.93 368.101C1536.55 369.739 1534.16 371.413 1531.78 373.051C1530.71 373.764 1529.89 372.482 1529.89 370.131V358.235C1529.89 355.92 1530.74 353.462 1531.78 352.75C1534.16 351.147 1536.55 349.544 1538.93 347.941C1539.97 347.265 1540.79 348.583 1540.79 350.862V362.616V362.651ZM1557.03 351.539C1557.03 353.783 1556.24 356.205 1555.21 356.881C1552.9 358.448 1550.62 360.051 1548.3 361.654C1547.27 362.366 1546.49 361.048 1546.49 358.769V347.087C1546.49 344.807 1547.3 342.385 1548.3 341.708C1550.62 340.141 1552.93 338.61 1555.21 337.078C1556.21 336.402 1557.03 337.719 1557.03 339.999V351.574V351.539ZM1572.74 340.925C1572.74 343.133 1571.95 345.484 1570.99 346.161C1568.78 347.657 1566.54 349.188 1564.29 350.72C1563.3 351.396 1562.51 350.078 1562.51 347.835V336.33C1562.51 334.086 1563.3 331.736 1564.29 331.059C1566.54 329.563 1568.78 328.103 1570.99 326.643C1571.95 326.001 1572.74 327.319 1572.74 329.527V340.889V340.925ZM1587.91 330.81C1587.91 332.982 1587.16 335.262 1586.23 335.903C1584.1 337.328 1581.92 338.752 1579.75 340.213C1578.79 340.854 1578.04 339.571 1578.04 337.328V326.001C1578.04 323.793 1578.79 321.478 1579.75 320.873C1581.92 319.448 1584.1 318.059 1586.23 316.705C1587.16 316.1 1587.91 317.418 1587.91 319.59V330.774V330.81ZM1602.65 321.3C1602.65 323.437 1601.94 325.681 1601.02 326.251C1598.91 327.604 1596.85 328.958 1594.71 330.311C1593.78 330.917 1593.04 329.634 1593.04 327.426V316.278C1593.04 314.105 1593.78 311.862 1594.71 311.256C1596.81 309.938 1598.91 308.62 1601.02 307.303C1601.94 306.733 1602.65 308.051 1602.65 310.188V321.193V321.3ZM1630.79 304.168C1630.79 306.27 1630.11 308.371 1629.26 308.87C1627.3 310.009 1625.34 311.185 1623.35 312.396C1622.49 312.93 1621.78 311.612 1621.78 309.511V298.719C1621.78 296.618 1622.49 294.48 1623.35 293.982C1625.34 292.842 1627.3 291.702 1629.26 290.563C1630.11 290.064 1630.79 291.382 1630.79 293.483V304.168ZM1615.97 289.779C1613.55 291.204 1611.56 287.571 1611.56 281.658V155.254C1611.56 149.342 1613.55 143.679 1615.97 142.646C1640.66 132.103 1664.13 123.876 1686.42 118.96C1688.49 118.497 1690.13 122.558 1690.13 127.972V243.584C1690.13 248.998 1688.45 253.984 1686.42 254.768C1664.13 263.28 1640.66 275.283 1615.97 289.779ZM1644.22 296.582C1644.22 298.648 1643.54 300.678 1642.72 301.141C1640.83 302.209 1638.91 303.278 1636.99 304.382C1636.13 304.845 1635.46 303.563 1635.46 301.461V290.848C1635.46 288.782 1636.13 286.716 1636.99 286.217C1638.91 285.149 1640.83 284.116 1642.72 283.083C1643.54 282.656 1644.22 283.974 1644.22 286.039V296.582ZM1657.25 289.672C1657.25 291.702 1656.61 293.697 1655.79 294.089C1653.94 295.05 1652.09 296.012 1650.24 297.009C1649.42 297.437 1648.78 296.119 1648.78 294.089V283.617C1648.78 281.587 1649.42 279.557 1650.24 279.13C1652.09 278.168 1653.94 277.242 1655.79 276.316C1656.61 275.924 1657.25 277.242 1657.25 279.272V289.637V289.672ZM1669.9 283.475C1669.9 285.469 1669.26 287.393 1668.47 287.785C1666.69 288.639 1664.88 289.53 1663.06 290.42C1662.28 290.812 1661.64 289.494 1661.64 287.464V277.135C1661.64 275.105 1662.28 273.182 1663.06 272.79C1664.88 271.935 1666.66 271.08 1668.47 270.261C1669.26 269.905 1669.9 271.258 1669.9 273.253V283.475ZM1682.22 277.954C1682.22 279.913 1681.62 281.801 1680.87 282.121C1679.12 282.869 1677.38 283.653 1675.6 284.437C1674.81 284.793 1674.21 283.439 1674.21 281.445V271.258C1674.21 269.264 1674.81 267.376 1675.6 267.056C1677.34 266.308 1679.12 265.56 1680.87 264.847C1681.62 264.527 1682.22 265.88 1682.22 267.875V277.954ZM1694.19 273.217C1694.19 275.141 1693.58 276.957 1692.87 277.242C1691.16 277.883 1689.49 278.56 1687.78 279.272C1687.03 279.557 1686.42 278.204 1686.42 276.245V266.236C1686.42 264.277 1687.03 262.425 1687.78 262.14C1689.49 261.499 1691.2 260.858 1692.87 260.217C1693.62 259.968 1694.19 261.321 1694.19 263.28V273.217ZM1705.8 269.157C1705.8 271.08 1705.23 272.825 1704.52 273.075C1702.88 273.609 1701.21 274.179 1699.57 274.784C1698.85 275.034 1698.25 273.68 1698.25 271.757V261.855C1698.25 259.932 1698.82 258.151 1699.57 257.902C1701.24 257.332 1702.88 256.798 1704.52 256.299C1705.23 256.085 1705.8 257.475 1705.8 259.398V269.193V269.157ZM1717.09 265.845C1717.09 267.732 1716.52 269.442 1715.84 269.62C1714.24 270.047 1712.64 270.51 1711 271.009C1710.29 271.223 1709.72 269.834 1709.72 267.946V258.187C1709.72 256.299 1710.29 254.554 1711 254.376C1712.6 253.913 1714.24 253.485 1715.84 253.094C1716.56 252.916 1717.09 254.305 1717.09 256.192V265.845ZM1728.1 263.245C1728.1 265.097 1727.56 266.735 1726.89 266.877C1725.32 267.234 1723.75 267.59 1722.18 267.946C1721.51 268.124 1720.94 266.699 1720.94 264.847V255.231C1720.94 253.343 1721.51 251.705 1722.18 251.527C1723.75 251.17 1725.32 250.85 1726.89 250.529C1727.56 250.387 1728.1 251.811 1728.1 253.664V263.209V263.245ZM1738.82 261.357C1738.82 263.209 1738.28 264.776 1737.64 264.883C1736.11 265.132 1734.61 265.381 1733.08 265.666C1732.41 265.773 1731.87 264.384 1731.87 262.532V253.058C1731.87 251.206 1732.41 249.603 1733.08 249.496C1734.61 249.247 1736.15 249.033 1737.64 248.82C1738.32 248.748 1738.82 250.173 1738.82 251.99V261.392V261.357ZM1749.25 260.181C1749.25 261.998 1748.72 263.529 1748.08 263.601C1746.58 263.743 1745.12 263.886 1743.63 264.064C1742.98 264.135 1742.45 262.71 1742.45 260.894V251.527C1742.45 249.71 1742.98 248.143 1743.63 248.072C1745.12 247.929 1746.62 247.787 1748.08 247.68C1748.72 247.644 1749.25 249.069 1749.25 250.885V260.181ZM1759.4 259.647C1759.4 261.428 1758.9 262.924 1758.26 262.924C1756.84 262.96 1755.38 263.031 1753.92 263.102C1753.28 263.102 1752.78 261.713 1752.78 259.896V250.672C1752.78 248.855 1753.28 247.359 1753.92 247.359C1755.38 247.288 1756.8 247.288 1758.26 247.252C1758.9 247.252 1759.4 248.713 1759.4 250.494V259.647ZM1778.92 260.573C1778.92 262.318 1778.46 263.707 1777.85 263.636C1776.5 263.494 1775.11 263.387 1773.72 263.28C1773.12 263.244 1772.62 261.749 1772.62 260.003V250.992C1772.62 249.247 1773.12 247.822 1773.72 247.894C1775.11 248.036 1776.46 248.179 1777.85 248.321C1778.46 248.392 1778.92 249.888 1778.92 251.633V260.573ZM1788.36 261.927C1788.36 263.636 1787.9 264.99 1787.33 264.883C1786.01 264.669 1784.66 264.455 1783.3 264.277C1782.7 264.206 1782.23 262.71 1782.23 260.965V252.061C1782.23 250.316 1782.7 248.962 1783.3 249.069C1784.66 249.283 1785.97 249.532 1787.33 249.781C1787.9 249.888 1788.36 251.384 1788.36 253.129V261.962V261.927ZM1797.51 263.886C1797.51 265.595 1797.05 266.877 1796.48 266.735C1795.16 266.414 1793.88 266.129 1792.56 265.88C1791.99 265.773 1791.53 264.277 1791.53 262.568V253.77C1791.53 252.061 1791.99 250.743 1792.56 250.885C1793.88 251.17 1795.2 251.491 1796.48 251.811C1797.05 251.954 1797.51 253.45 1797.51 255.159V263.886ZM1806.45 266.343C1806.45 268.017 1806.03 269.264 1805.46 269.086C1804.17 268.694 1802.93 268.338 1801.65 267.982C1801.08 267.839 1800.65 266.343 1800.65 264.634V255.979C1800.65 254.269 1801.11 253.022 1801.65 253.201C1802.93 253.557 1804.21 253.948 1805.46 254.376C1806.03 254.554 1806.45 256.085 1806.45 257.759V266.379V266.343ZM1815.22 269.335C1815.22 271.009 1814.79 272.184 1814.25 272.006C1813.01 271.543 1811.76 271.116 1810.51 270.724C1809.98 270.546 1809.52 269.014 1809.52 267.34V258.757C1809.52 257.083 1809.94 255.872 1810.51 256.05C1811.76 256.477 1813.01 256.94 1814.25 257.439C1814.79 257.653 1815.22 259.184 1815.22 260.823V269.335ZM1823.73 272.754C1823.73 274.393 1823.3 275.568 1822.77 275.319C1821.55 274.82 1820.34 274.321 1819.13 273.823C1818.6 273.609 1818.17 272.077 1818.17 270.439V261.962C1818.17 260.324 1818.6 259.149 1819.13 259.362C1820.34 259.861 1821.55 260.395 1822.77 260.929C1823.3 261.179 1823.73 262.71 1823.73 264.349V272.754ZM1832.06 276.636C1832.06 278.275 1831.63 279.379 1831.14 279.13C1829.96 278.56 1828.75 277.99 1827.57 277.456C1827.04 277.206 1826.65 275.675 1826.65 274.072V265.702C1826.65 264.064 1827.08 262.924 1827.57 263.173C1828.75 263.743 1829.96 264.313 1831.14 264.918C1831.63 265.168 1832.06 266.699 1832.06 268.338V276.636ZM1840.18 280.875C1840.18 282.478 1839.79 283.582 1839.29 283.297C1838.15 282.691 1836.98 282.05 1835.8 281.48C1835.3 281.231 1834.88 279.699 1834.88 278.061V269.798C1834.88 268.195 1835.27 267.091 1835.8 267.34C1836.98 267.946 1838.12 268.587 1839.29 269.228C1839.79 269.513 1840.18 271.045 1840.18 272.647V280.839V280.875ZM1848.13 285.434C1848.13 287.001 1847.73 288.069 1847.23 287.785C1846.09 287.108 1844.99 286.467 1843.85 285.826C1843.35 285.541 1842.96 284.009 1842.96 282.406V274.25C1842.96 272.647 1843.35 271.579 1843.85 271.864C1844.99 272.54 1846.13 273.217 1847.23 273.894C1847.73 274.179 1848.13 275.746 1848.13 277.313V285.434ZM1855.89 290.278C1855.89 291.845 1855.5 292.878 1855.03 292.557C1853.93 291.845 1852.83 291.168 1851.72 290.456C1851.22 290.171 1850.83 288.639 1850.83 287.037V278.952C1850.83 277.384 1851.22 276.316 1851.72 276.636C1852.83 277.349 1853.93 278.061 1855.03 278.809C1855.5 279.13 1855.89 280.661 1855.89 282.228V290.242V290.278ZM1863.51 295.371C1863.51 296.902 1863.12 297.935 1862.66 297.615C1861.59 296.867 1860.48 296.155 1859.42 295.407C1858.95 295.086 1858.56 293.554 1858.56 291.987V284.009C1858.56 282.442 1858.95 281.445 1859.42 281.765C1860.48 282.513 1861.59 283.261 1862.66 284.009C1863.12 284.33 1863.51 285.861 1863.51 287.428V295.371ZM1870.92 300.678C1870.92 302.209 1870.56 303.207 1870.1 302.85C1869.03 302.103 1868 301.319 1866.93 300.571C1866.47 300.25 1866.08 298.719 1866.08 297.187V289.28C1866.08 287.749 1866.43 286.752 1866.93 287.072C1868 287.856 1869.07 288.639 1870.1 289.423C1870.56 289.779 1870.92 291.311 1870.92 292.842V300.678ZM1878.19 306.127C1878.19 307.659 1877.83 308.62 1877.37 308.264C1876.33 307.481 1875.3 306.697 1874.27 305.914C1873.8 305.557 1873.45 304.061 1873.45 302.53V294.73C1873.45 293.198 1873.8 292.237 1874.27 292.593C1875.3 293.376 1876.33 294.196 1877.37 294.979C1877.83 295.335 1878.19 296.867 1878.19 298.363V306.127ZM1885.27 311.683C1885.27 313.179 1884.92 314.141 1884.49 313.785C1883.49 313.001 1882.46 312.182 1881.46 311.399C1881.04 311.042 1880.64 309.546 1880.64 308.051V300.322C1880.64 298.826 1881 297.864 1881.46 298.22C1882.5 299.039 1883.49 299.859 1884.49 300.642C1884.92 300.998 1885.27 302.494 1885.27 304.026V311.683ZM1892.22 317.275C1892.22 318.771 1891.86 319.697 1891.44 319.341C1890.44 318.558 1889.44 317.738 1888.48 316.955C1888.05 316.599 1887.7 315.103 1887.7 313.607V305.949C1887.7 304.453 1888.05 303.527 1888.48 303.883C1889.48 304.703 1890.47 305.522 1891.44 306.341C1891.86 306.697 1892.22 308.193 1892.22 309.689V317.275ZM1899.02 322.867C1899.02 324.327 1898.7 325.254 1898.27 324.897C1897.31 324.114 1896.35 323.295 1895.35 322.511C1894.93 322.155 1894.57 320.659 1894.57 319.199V311.648C1894.57 310.188 1894.93 309.262 1895.35 309.618C1896.31 310.437 1897.31 311.256 1898.27 312.075C1898.7 312.431 1899.02 313.927 1899.02 315.388V322.903V322.867ZM1905.68 328.459C1905.68 329.919 1905.36 330.81 1904.93 330.489C1903.97 329.706 1903.05 328.886 1902.08 328.103C1901.66 327.747 1901.34 326.286 1901.34 324.826V317.347C1901.34 315.886 1901.66 314.96 1902.08 315.316C1903.05 316.136 1903.97 316.955 1904.93 317.738C1905.36 318.094 1905.68 319.555 1905.68 321.015V328.459ZM1912.24 333.98C1912.24 335.404 1911.92 336.33 1911.52 335.974C1910.6 335.191 1909.67 334.407 1908.75 333.623C1908.35 333.267 1908 331.807 1908 330.382V322.974C1908 321.514 1908.32 320.623 1908.75 320.979C1909.67 321.799 1910.6 322.582 1911.52 323.366C1911.92 323.722 1912.24 325.182 1912.24 326.607V333.944V333.98ZM1914.44 206.542C1914.44 205.118 1914.76 204.299 1915.16 204.69C1916.08 205.652 1916.97 206.614 1917.9 207.575C1918.29 208.003 1918.61 209.499 1918.61 210.923V218.189C1918.61 219.614 1918.29 220.433 1917.9 220.041C1916.97 219.115 1916.08 218.153 1915.16 217.227C1914.76 216.8 1914.44 215.304 1914.44 213.879V206.578V206.542ZM1914.44 328.53C1914.44 327.106 1914.76 326.215 1915.16 326.536C1916.08 327.319 1916.97 328.103 1917.9 328.886C1918.29 329.243 1918.61 330.667 1918.61 332.092V339.358C1918.61 340.782 1918.29 341.673 1917.9 341.352C1916.97 340.604 1916.08 339.821 1915.16 339.073C1914.76 338.752 1914.44 337.292 1914.44 335.867V328.53ZM1907.96 199.704C1907.96 198.244 1908.28 197.424 1908.71 197.852C1909.64 198.849 1910.56 199.811 1911.49 200.808C1911.88 201.235 1912.2 202.767 1912.2 204.192V211.529C1912.2 212.989 1911.88 213.808 1911.49 213.381C1910.56 212.419 1909.64 211.458 1908.71 210.496C1908.32 210.068 1907.96 208.573 1907.96 207.112V199.74V199.704ZM1901.34 192.759C1901.34 191.298 1901.66 190.444 1902.08 190.907C1903.05 191.904 1903.97 192.901 1904.93 193.898C1905.36 194.326 1905.68 195.857 1905.68 197.318V204.726C1905.68 206.186 1905.36 207.005 1904.93 206.578C1903.97 205.581 1903.05 204.619 1902.08 203.622C1901.66 203.194 1901.34 201.663 1901.34 200.203V192.723V192.759ZM1894.61 185.742C1894.61 184.282 1894.96 183.427 1895.39 183.854C1896.35 184.852 1897.35 185.885 1898.31 186.882C1898.74 187.309 1899.06 188.876 1899.06 190.337V197.816C1899.06 199.312 1898.74 200.131 1898.31 199.704C1897.35 198.707 1896.39 197.709 1895.39 196.748C1894.96 196.32 1894.61 194.789 1894.61 193.293V185.742ZM1887.7 178.69C1887.7 177.194 1888.05 176.339 1888.48 176.767C1889.48 177.764 1890.47 178.797 1891.44 179.794C1891.86 180.221 1892.22 181.789 1892.22 183.285V190.871C1892.22 192.367 1891.86 193.222 1891.44 192.794C1890.44 191.797 1889.44 190.8 1888.48 189.802C1888.05 189.375 1887.7 187.808 1887.7 186.312V178.69ZM1880.64 171.638C1880.64 170.142 1881 169.251 1881.46 169.679C1882.5 170.676 1883.49 171.709 1884.49 172.706C1884.92 173.134 1885.27 174.736 1885.27 176.232V183.89C1885.27 185.386 1884.92 186.276 1884.49 185.849C1883.49 184.852 1882.46 183.854 1881.46 182.857C1881.04 182.43 1880.64 180.863 1880.64 179.331V171.638ZM1873.45 164.657C1873.45 163.125 1873.8 162.235 1874.27 162.662C1875.3 163.66 1876.33 164.657 1877.37 165.654C1877.83 166.082 1878.19 167.684 1878.19 169.216V176.945C1878.19 178.476 1877.83 179.367 1877.37 178.939C1876.33 177.942 1875.3 176.98 1874.27 175.983C1873.8 175.556 1873.45 173.989 1873.45 172.421V164.621V164.657ZM1871.92 186.312C1871.92 182.074 1872.95 179.58 1874.2 180.72C1887.09 192.759 1899.45 205.474 1911.35 217.762C1912.45 218.901 1913.34 223.069 1913.34 227.022V312.004C1913.34 315.993 1912.45 318.415 1911.35 317.453C1899.45 307.089 1887.09 296.333 1874.2 286.36C1872.95 285.398 1871.92 281.16 1871.92 276.921V186.241V186.312ZM1866.08 157.783C1866.08 156.251 1866.43 155.325 1866.93 155.753C1868 156.75 1869.07 157.712 1870.1 158.709C1870.56 159.136 1870.92 160.739 1870.92 162.271V170.106C1870.92 171.638 1870.56 172.564 1870.1 172.136C1869.03 171.175 1868 170.213 1866.93 169.251C1866.47 168.824 1866.08 167.257 1866.08 165.69V157.818V157.783ZM1858.56 151.016C1858.56 149.449 1858.95 148.522 1859.42 148.95C1860.48 149.912 1861.59 150.873 1862.66 151.835C1863.12 152.262 1863.51 153.865 1863.51 155.432V163.339C1863.51 164.906 1863.12 165.832 1862.66 165.405C1861.59 164.443 1860.48 163.517 1859.42 162.556C1858.95 162.128 1858.56 160.561 1858.56 158.994V151.016ZM1850.83 144.462C1850.83 142.895 1851.22 141.933 1851.72 142.325C1852.83 143.251 1853.93 144.177 1855.03 145.139C1855.5 145.566 1855.89 147.169 1855.89 148.736V156.75C1855.89 158.317 1855.5 159.279 1855.03 158.887C1853.93 157.961 1852.83 157.035 1851.72 156.144C1851.22 155.753 1850.83 154.15 1850.83 152.547V144.498V144.462ZM1842.96 138.158C1842.96 136.555 1843.35 135.558 1843.85 135.95C1844.99 136.84 1846.13 137.731 1847.23 138.657C1847.73 139.048 1848.13 140.687 1848.13 142.254V150.339C1848.13 151.942 1847.73 152.903 1847.23 152.512C1846.09 151.621 1844.99 150.731 1843.85 149.876C1843.35 149.484 1842.96 147.917 1842.96 146.279V138.122V138.158ZM1834.88 132.103C1834.88 130.5 1835.27 129.467 1835.8 129.824C1836.98 130.678 1838.12 131.533 1839.29 132.424C1839.79 132.815 1840.18 134.418 1840.18 136.021V144.213C1840.18 145.816 1839.79 146.813 1839.29 146.457C1838.15 145.602 1836.98 144.783 1835.8 143.928C1835.3 143.572 1834.88 141.969 1834.88 140.331V132.067V132.103ZM1826.61 126.369C1826.61 124.73 1827.04 123.662 1827.54 124.018C1828.71 124.837 1829.92 125.621 1831.1 126.476C1831.6 126.832 1832.03 128.47 1832.03 130.073V138.372C1832.03 140.01 1831.6 141.043 1831.1 140.687C1829.92 139.868 1828.71 139.084 1827.54 138.3C1827 137.944 1826.61 136.377 1826.61 134.703V126.369ZM1867.11 174.238C1868.39 175.378 1869.42 179.758 1869.42 184.033V275.034C1869.42 279.308 1868.39 281.979 1867.11 281.017C1853.47 270.938 1839.19 261.927 1824.3 255.017C1822.84 254.34 1821.66 250.137 1821.66 245.543V147.988C1821.66 143.429 1822.84 140.437 1824.3 141.328C1839.22 150.624 1853.47 161.914 1867.11 174.202V174.238ZM1818.17 121.026C1818.17 119.388 1818.6 118.284 1819.13 118.604C1820.34 119.352 1821.55 120.1 1822.77 120.884C1823.3 121.24 1823.73 122.843 1823.73 124.481V132.851C1823.73 134.489 1823.3 135.558 1822.77 135.237C1821.55 134.489 1820.34 133.741 1819.13 133.029C1818.6 132.709 1818.17 131.106 1818.17 129.467V121.026ZM1818.78 146.35V244.296C1818.78 248.891 1817.6 252.096 1816.11 251.491C1800.26 245.08 1783.62 241.126 1766.24 240.236C1764.53 240.129 1763.18 236.104 1763.18 231.154V125.55C1763.18 120.599 1764.57 116.859 1766.24 117.215C1783.62 120.919 1800.26 127.508 1816.11 136.484C1817.57 137.339 1818.78 141.72 1818.78 146.314V146.35ZM1809.52 116.075C1809.52 114.401 1809.94 113.262 1810.51 113.582C1811.76 114.259 1813.01 114.971 1814.25 115.684C1814.79 116.004 1815.22 117.607 1815.22 119.281V127.758C1815.22 129.432 1814.79 130.536 1814.25 130.215C1813.01 129.539 1811.76 128.826 1810.51 128.185C1809.98 127.9 1809.52 126.298 1809.52 124.624V116.075ZM1800.65 111.552C1800.65 109.843 1801.11 108.703 1801.65 108.952C1802.93 109.593 1804.21 110.199 1805.46 110.875C1806.03 111.16 1806.45 112.763 1806.45 114.437V123.021C1806.45 124.73 1806.03 125.834 1805.46 125.585C1804.17 124.944 1802.93 124.339 1801.65 123.733C1801.08 123.484 1800.65 121.881 1800.65 120.171V111.517V111.552ZM1791.53 107.527C1791.53 105.818 1791.99 104.607 1792.56 104.856C1793.88 105.426 1795.2 105.996 1796.48 106.566C1797.05 106.815 1797.51 108.418 1797.51 110.127V118.818C1797.51 120.528 1797.05 121.703 1796.48 121.454C1795.16 120.884 1793.88 120.349 1792.56 119.815C1791.99 119.566 1791.53 117.999 1791.53 116.289V107.527ZM1782.2 104.001C1782.2 102.256 1782.66 101.01 1783.27 101.223C1784.62 101.686 1785.94 102.185 1787.29 102.719C1787.86 102.933 1788.32 104.536 1788.32 106.245V115.043C1788.32 116.788 1787.86 117.999 1787.29 117.785C1785.97 117.286 1784.62 116.823 1783.27 116.36C1782.66 116.147 1782.2 114.615 1782.2 112.834V103.966V104.001ZM1772.65 101.01C1772.65 99.2643 1773.15 97.9465 1773.76 98.1245C1775.15 98.5163 1776.5 98.9437 1777.89 99.3711C1778.49 99.5492 1778.96 101.152 1778.96 102.897V111.801C1778.96 113.547 1778.49 114.829 1777.89 114.651C1776.54 114.259 1775.15 113.867 1773.76 113.475C1773.15 113.297 1772.65 111.766 1772.65 109.985V101.01ZM1762.82 98.6232C1762.82 96.8423 1763.32 95.4889 1763.93 95.6314C1765.35 95.9519 1766.74 96.2725 1768.17 96.6286C1768.77 96.7711 1769.27 98.3739 1769.27 100.119V109.13C1769.27 110.911 1768.77 112.229 1768.17 112.086C1766.78 111.766 1765.35 111.445 1763.93 111.16C1763.32 111.018 1762.82 109.486 1762.82 107.705V98.5876V98.6232ZM1762.82 250.494C1762.82 248.713 1763.32 247.252 1763.93 247.288C1765.35 247.324 1766.74 247.395 1768.17 247.466C1768.77 247.466 1769.27 248.962 1769.27 250.743V259.79C1769.27 261.57 1768.77 262.995 1768.17 262.96C1766.78 262.924 1765.35 262.888 1763.93 262.853C1763.32 262.853 1762.82 261.392 1762.82 259.612V250.494ZM1752.78 96.8067C1752.78 94.9903 1753.28 93.6012 1753.92 93.7081C1755.38 93.9574 1756.8 94.2067 1758.26 94.456C1758.9 94.5629 1759.4 96.13 1759.4 97.9108V107.064C1759.4 108.881 1758.9 110.234 1758.26 110.127C1756.84 109.878 1755.38 109.664 1753.92 109.451C1753.28 109.344 1752.78 107.848 1752.78 105.996V96.7711V96.8067ZM1742.45 95.5957C1742.45 93.7793 1742.98 92.319 1743.63 92.3902C1745.12 92.5327 1746.62 92.7108 1748.08 92.8889C1748.72 92.9601 1749.25 94.5272 1749.25 96.3437V105.604C1749.25 107.421 1748.72 108.845 1748.08 108.774C1746.58 108.632 1745.12 108.489 1743.63 108.382C1742.98 108.347 1742.45 106.815 1742.45 104.963V95.6314V95.5957ZM1731.84 95.0259C1731.84 93.1738 1732.37 91.6779 1733.05 91.6779C1734.58 91.7135 1736.11 91.8204 1737.61 91.8916C1738.28 91.9272 1738.78 93.4587 1738.78 95.3108V104.714C1738.78 106.566 1738.25 108.026 1737.61 107.99C1736.07 107.919 1734.58 107.884 1733.05 107.848C1732.37 107.848 1731.84 106.352 1731.84 104.464V94.9903V95.0259ZM1720.94 95.0971C1720.94 93.2094 1721.51 91.6779 1722.18 91.6423C1723.75 91.6067 1725.32 91.571 1726.89 91.571C1727.56 91.571 1728.1 93.1026 1728.1 94.9546V104.464C1728.1 106.352 1727.56 107.848 1726.89 107.884C1725.32 107.884 1723.75 107.955 1722.18 108.026C1721.51 108.026 1720.94 106.566 1720.94 104.678V95.0615V95.0971ZM1709.72 95.8094C1709.72 93.9218 1710.29 92.2834 1711 92.2478C1712.6 92.1053 1714.24 91.9984 1715.84 91.8916C1716.56 91.856 1717.09 93.3519 1717.09 95.2396V104.892C1717.09 106.779 1716.52 108.347 1715.84 108.418C1714.24 108.56 1712.64 108.703 1711 108.845C1710.29 108.916 1709.72 107.456 1709.72 105.533V95.8094ZM1698.21 97.1985C1698.21 95.2752 1698.78 93.6012 1699.53 93.4944C1701.21 93.2806 1702.84 93.0669 1704.48 92.8889C1705.19 92.8176 1705.76 94.3135 1705.76 96.2369V106.032C1705.76 107.955 1705.19 109.593 1704.48 109.664C1702.84 109.878 1701.17 110.127 1699.53 110.377C1698.82 110.484 1698.21 109.023 1698.21 107.064V97.1985ZM1697.82 116.752C1718.37 113.226 1738 112.763 1756.66 115.541C1758.41 115.791 1759.8 120.065 1759.8 125.015V231.082C1759.8 236.033 1758.41 240.058 1756.66 240.058C1738 240.272 1718.37 243.904 1697.82 250.707C1695.79 251.384 1694.15 247.573 1694.15 242.195V127.152C1694.15 121.774 1695.79 117.108 1697.82 116.752ZM1686.39 99.2287C1686.39 97.2697 1686.99 95.5601 1687.74 95.4177C1689.45 95.0971 1691.16 94.8122 1692.84 94.5272C1693.58 94.4204 1694.15 95.8807 1694.15 97.8396V107.741C1694.15 109.7 1693.55 111.374 1692.84 111.517C1691.13 111.837 1689.45 112.158 1687.74 112.514C1686.99 112.656 1686.39 111.196 1686.39 109.237V99.2287ZM1674.21 101.936C1674.21 99.941 1674.81 98.1602 1675.6 97.9821C1677.34 97.5547 1679.12 97.1629 1680.87 96.8067C1681.62 96.6286 1682.22 98.1245 1682.22 100.083V110.127C1682.22 112.122 1681.62 113.832 1680.87 114.01C1679.12 114.437 1677.38 114.864 1675.6 115.292C1674.81 115.47 1674.21 114.045 1674.21 112.051V101.9V101.936ZM1661.67 105.248C1661.67 103.218 1662.31 101.401 1663.1 101.188C1664.91 100.689 1666.69 100.19 1668.51 99.7273C1669.29 99.5136 1669.93 101.01 1669.93 103.004V113.19C1669.93 115.221 1669.29 117.002 1668.51 117.215C1666.73 117.714 1664.91 118.248 1663.1 118.782C1662.31 119.032 1661.67 117.571 1661.67 115.541V105.248ZM1648.78 109.237C1648.78 107.207 1649.42 105.319 1650.24 105.034C1652.09 104.429 1653.94 103.859 1655.79 103.325C1656.61 103.075 1657.25 104.536 1657.25 106.566V116.93C1657.25 118.96 1656.61 120.813 1655.79 121.062C1653.94 121.667 1652.09 122.273 1650.24 122.914C1649.42 123.199 1648.78 121.774 1648.78 119.708V109.273V109.237ZM1635.46 113.796C1635.46 111.73 1636.13 109.771 1636.99 109.486C1638.91 108.81 1640.83 108.133 1642.72 107.492C1643.54 107.207 1644.22 108.667 1644.22 110.733V121.24C1644.22 123.306 1643.54 125.229 1642.72 125.514C1640.83 126.191 1638.91 126.903 1636.99 127.615C1636.13 127.936 1635.46 126.511 1635.46 124.41V113.796ZM1621.78 118.96C1621.78 116.859 1622.49 114.864 1623.35 114.508C1625.34 113.76 1627.3 113.012 1629.26 112.264C1630.11 111.944 1630.79 113.404 1630.79 115.506V126.155C1630.79 128.256 1630.11 130.215 1629.26 130.536C1627.3 131.32 1625.34 132.103 1623.35 132.887C1622.49 133.243 1621.78 131.818 1621.78 129.681V118.925V118.96ZM1607.64 124.695C1607.64 122.558 1608.35 120.492 1609.24 120.136C1611.27 119.281 1613.3 118.462 1615.33 117.678C1616.22 117.322 1616.94 118.782 1616.94 120.884V131.711C1616.94 133.848 1616.22 135.843 1615.33 136.235C1613.3 137.089 1611.27 137.944 1609.24 138.835C1608.35 139.226 1607.64 137.802 1607.64 135.629V124.695ZM1607.64 307.231C1607.64 305.094 1608.35 302.886 1609.24 302.352C1611.27 301.105 1613.3 299.894 1615.33 298.683C1616.22 298.149 1616.94 299.467 1616.94 301.604V312.467C1616.94 314.604 1616.22 316.741 1615.33 317.311C1613.3 318.557 1611.27 319.84 1609.24 321.122C1608.35 321.692 1607.64 320.374 1607.64 318.237V307.267V307.231ZM1593.07 130.928C1593.07 128.755 1593.82 126.654 1594.75 126.262C1596.85 125.336 1598.95 124.445 1601.05 123.555C1601.98 123.163 1602.69 124.624 1602.69 126.761V137.766C1602.69 139.939 1601.98 142.005 1601.05 142.396C1598.95 143.322 1596.88 144.248 1594.75 145.21C1593.82 145.637 1593.07 144.213 1593.07 142.005V130.892V130.928ZM1578.04 137.695C1578.04 135.487 1578.79 133.35 1579.75 132.887C1581.92 131.925 1584.1 130.928 1586.23 130.002C1587.16 129.574 1587.91 131.035 1587.91 133.243V144.427C1587.91 146.635 1587.16 148.736 1586.23 149.199C1584.1 150.196 1581.92 151.194 1579.75 152.227C1578.79 152.69 1578.04 151.265 1578.04 149.021V137.731V137.695ZM1562.51 144.89C1562.51 142.646 1563.3 140.437 1564.29 139.974C1566.54 138.942 1568.78 137.909 1570.99 136.876C1571.95 136.448 1572.74 137.909 1572.74 140.117V151.479C1572.74 153.723 1571.95 155.895 1570.99 156.358C1568.78 157.427 1566.54 158.495 1564.29 159.599C1563.3 160.062 1562.51 158.638 1562.51 156.394V144.925V144.89ZM1546.45 152.476C1546.45 150.196 1547.27 147.953 1548.27 147.454C1550.58 146.35 1552.9 145.281 1555.18 144.177C1556.17 143.714 1556.99 145.174 1556.99 147.454V158.994C1556.99 161.273 1556.21 163.482 1555.18 163.98C1552.86 165.12 1550.58 166.224 1548.27 167.364C1547.23 167.862 1546.45 166.438 1546.45 164.123V152.476ZM1529.89 160.419C1529.89 158.103 1530.74 155.788 1531.78 155.29C1534.16 154.15 1536.55 153.01 1538.93 151.87C1539.97 151.372 1540.79 152.868 1540.79 155.147V166.865C1540.79 169.18 1539.97 171.46 1538.93 171.958C1536.55 173.134 1534.16 174.309 1531.78 175.52C1530.71 176.054 1529.89 174.594 1529.89 172.243V160.383V160.419ZM1512.72 168.646C1512.72 166.295 1513.61 163.945 1514.68 163.41C1517.17 162.235 1519.63 161.06 1522.09 159.884C1523.16 159.386 1524.01 160.882 1524.01 163.197V175.128C1524.01 177.479 1523.16 179.794 1522.09 180.328C1519.63 181.539 1517.17 182.786 1514.68 183.997C1513.58 184.531 1512.72 183.071 1512.72 180.685V168.61V168.646ZM1510.9 205.26C1510.9 198.707 1513.33 192.153 1516.32 190.657C1546.66 175.378 1575.19 160.846 1602.19 148.701C1604.68 147.596 1606.68 151.514 1606.68 157.462V284.508C1606.68 290.456 1604.68 296.475 1602.19 298.007C1575.16 314.497 1546.63 333.588 1516.32 353.747C1513.33 355.742 1510.9 352.037 1510.9 345.448V205.26ZM1494.98 177.123C1494.98 174.736 1495.87 172.315 1497.01 171.816C1499.58 170.605 1502.14 169.394 1504.67 168.183C1505.78 167.649 1506.67 169.18 1506.67 171.567V183.712C1506.67 186.098 1505.78 188.449 1504.67 189.019C1502.14 190.265 1499.58 191.548 1497.01 192.794C1495.87 193.329 1494.98 191.833 1494.98 189.411V177.123ZM1476.61 185.778C1476.61 183.32 1477.53 180.898 1478.71 180.364C1481.38 179.117 1484.01 177.906 1486.65 176.66C1487.79 176.126 1488.72 177.657 1488.72 180.079V192.438C1488.72 194.86 1487.79 197.282 1486.65 197.852C1484.01 199.134 1481.38 200.416 1478.71 201.698C1477.53 202.268 1476.61 200.737 1476.61 198.279V185.778ZM1457.59 194.539C1457.59 192.046 1458.55 189.589 1459.76 189.019C1462.5 187.772 1465.24 186.526 1467.99 185.279C1469.16 184.745 1470.12 186.312 1470.12 188.77V201.342C1470.12 203.835 1469.16 206.257 1467.99 206.827C1465.24 208.145 1462.54 209.427 1459.76 210.745C1458.55 211.315 1457.59 209.748 1457.59 207.255V194.539ZM1437.85 203.372C1437.85 200.844 1438.85 198.315 1440.1 197.781C1442.95 196.534 1445.8 195.287 1448.61 194.041C1449.86 193.507 1450.82 195.109 1450.82 197.603V210.389C1450.82 212.918 1449.82 215.411 1448.61 215.981C1445.8 217.299 1442.95 218.581 1440.1 219.899C1438.85 220.469 1437.85 218.866 1437.85 216.301V203.337V203.372ZM1417.37 212.134C1417.37 209.57 1418.41 207.005 1419.73 206.471C1422.68 205.225 1425.64 203.978 1428.56 202.731C1429.84 202.197 1430.87 203.835 1430.87 206.4V219.436C1430.87 222 1429.84 224.529 1428.56 225.099C1425.64 226.417 1422.68 227.699 1419.73 229.017C1418.41 229.587 1417.37 227.948 1417.37 225.348V212.17V212.134ZM1396.11 220.789C1396.11 218.153 1397.18 215.589 1398.53 215.055C1401.6 213.844 1404.66 212.633 1407.72 211.386C1409.04 210.852 1410.11 212.562 1410.11 215.126V228.411C1410.11 231.047 1409.04 233.576 1407.72 234.145C1404.69 235.428 1401.63 236.71 1398.53 237.992C1397.18 238.562 1396.11 236.888 1396.11 234.217V220.789ZM1499.36 199.17C1502.43 197.638 1504.92 201.734 1504.92 208.359V349.366C1504.92 355.955 1502.46 362.936 1499.36 364.966C1466.03 386.978 1430.48 409.915 1392.34 431.855C1388.56 434.027 1385.5 429.789 1385.5 422.416V265.025C1385.5 257.653 1388.56 250.458 1392.34 248.891C1430.48 233.041 1466.03 215.838 1499.36 199.17ZM1374.03 229.266C1374.03 226.595 1375.17 223.995 1376.56 223.46C1379.76 222.285 1382.93 221.074 1386.1 219.863C1387.49 219.329 1388.6 221.074 1388.6 223.745V237.28C1388.6 239.951 1387.49 242.551 1386.1 243.085C1382.93 244.368 1379.76 245.614 1376.56 246.861C1375.17 247.395 1374.03 245.685 1374.03 242.978V229.266ZM1378.02 268.16V426.584C1378.02 433.992 1374.88 441.756 1371 443.893C1328.76 467.187 1283.21 489.091 1233.98 507.826C1229.1 509.678 1225.11 504.335 1225.11 495.93V316.492C1225.11 308.086 1229.1 300.464 1233.98 299.396C1283.21 288.568 1328.76 273.965 1371 257.475C1374.88 255.979 1378.02 260.716 1378.02 268.124V268.16ZM1351.09 237.458C1351.09 234.715 1352.27 232.08 1353.73 231.581C1357.04 230.441 1360.35 229.302 1363.66 228.126C1365.09 227.628 1366.23 229.408 1366.23 232.115V245.899C1366.23 248.606 1365.09 251.242 1363.66 251.776C1360.39 253.022 1357.08 254.233 1353.73 255.444C1352.27 255.979 1351.09 254.198 1351.09 251.42V237.458ZM1327.19 245.329C1327.19 242.551 1328.4 239.88 1329.93 239.417C1333.39 238.348 1336.84 237.244 1340.26 236.104C1341.76 235.606 1342.94 237.493 1342.94 240.236V254.305C1342.94 257.083 1341.76 259.718 1340.26 260.253C1336.84 261.428 1333.39 262.603 1329.93 263.779C1328.4 264.277 1327.19 262.425 1327.19 259.612V245.365V245.329ZM1302.33 252.737C1302.33 249.888 1303.61 247.217 1305.18 246.754C1308.78 245.721 1312.38 244.688 1315.94 243.655C1317.5 243.192 1318.72 245.115 1318.72 247.929V262.283C1318.72 265.132 1317.47 267.803 1315.94 268.266C1312.38 269.406 1308.78 270.51 1305.18 271.579C1303.61 272.042 1302.33 270.119 1302.33 267.269V252.702V252.737ZM1276.44 259.647C1276.44 256.727 1277.76 254.02 1279.43 253.628C1283.21 252.702 1286.91 251.74 1290.65 250.743C1292.25 250.316 1293.57 252.31 1293.57 255.195V269.834C1293.57 272.719 1292.29 275.425 1290.65 275.888C1286.95 276.957 1283.21 277.99 1279.43 278.987C1277.79 279.415 1276.47 277.42 1276.44 274.499V259.647ZM1249.41 265.951C1249.41 262.995 1250.79 260.253 1252.5 259.896C1256.42 259.042 1260.3 258.187 1264.19 257.296C1265.86 256.905 1267.21 259.006 1267.21 261.927V276.886C1267.21 279.842 1265.86 282.549 1264.19 282.976C1260.3 283.938 1256.42 284.9 1252.5 285.826C1250.79 286.217 1249.41 284.152 1249.41 281.16V265.987V265.951ZM1221.16 271.543C1221.16 268.516 1222.62 265.773 1224.4 265.453C1228.5 264.705 1232.56 263.957 1236.62 263.138C1238.36 262.781 1239.79 264.954 1239.79 267.946V283.226C1239.79 286.253 1238.36 288.96 1236.62 289.352C1232.59 290.242 1228.5 291.061 1224.4 291.88C1222.62 292.237 1221.16 290.064 1221.16 287.001V271.508V271.543ZM1221.16 530.336C1221.16 527.308 1222.62 524.281 1224.4 523.604C1228.5 522.072 1232.56 520.47 1236.62 518.903C1238.36 518.226 1239.79 520.114 1239.79 523.105V538.421C1239.79 541.412 1238.36 544.44 1236.62 545.188C1232.59 546.862 1228.5 548.5 1224.4 550.139C1222.62 550.851 1221.16 548.928 1221.16 545.9V530.371V530.336ZM1191.71 276.351C1191.71 273.253 1193.2 270.51 1195.09 270.225C1199.36 269.62 1203.64 268.943 1207.84 268.266C1209.69 267.982 1211.15 270.225 1211.15 273.288V288.924C1211.15 292.023 1209.69 294.765 1207.84 295.086C1203.6 295.834 1199.36 296.582 1195.09 297.294C1193.2 297.615 1191.71 295.335 1191.71 292.201V276.351ZM1160.86 280.269C1160.86 277.099 1162.43 274.321 1164.42 274.108C1168.91 273.609 1173.36 273.11 1177.78 272.54C1179.7 272.291 1181.23 274.677 1181.23 277.776V293.768C1181.23 296.938 1179.7 299.681 1177.78 299.966C1173.36 300.607 1168.91 301.212 1164.42 301.818C1162.46 302.067 1160.86 299.716 1160.86 296.511V280.269ZM1128.56 283.261C1128.56 280.02 1130.2 277.242 1132.26 277.099C1136.96 276.743 1141.59 276.352 1146.22 275.96C1148.22 275.782 1149.86 278.239 1149.86 281.445V297.793C1149.86 301.034 1148.25 303.777 1146.22 304.026C1141.59 304.524 1136.93 305.023 1132.26 305.451C1130.2 305.629 1128.56 303.171 1128.56 299.894V283.297V283.261ZM1094.69 285.184C1094.69 281.872 1096.43 279.058 1098.57 278.987C1103.48 278.809 1108.36 278.56 1113.21 278.31C1115.31 278.204 1117.02 280.768 1117.02 284.045V300.785C1117.02 304.097 1115.34 306.875 1113.21 307.018C1108.36 307.374 1103.48 307.694 1098.57 308.015C1096.39 308.157 1094.69 305.557 1094.69 302.174V285.184ZM1059.18 285.968C1059.18 282.549 1060.99 279.771 1063.27 279.771C1068.44 279.771 1073.56 279.699 1078.66 279.593C1080.87 279.557 1082.65 282.264 1082.65 285.612V302.744C1082.65 306.127 1080.87 308.905 1078.66 309.012C1073.56 309.226 1068.44 309.368 1063.27 309.511C1060.99 309.546 1059.18 306.84 1059.18 303.42V286.004V285.968ZM1021.85 285.505C1021.85 282.015 1023.77 279.201 1026.16 279.272C1031.57 279.415 1036.99 279.557 1042.33 279.628C1044.64 279.664 1046.5 282.513 1046.5 285.932V303.492C1046.5 306.946 1044.64 309.76 1042.33 309.76C1036.99 309.76 1031.61 309.76 1026.16 309.76C1023.77 309.76 1021.85 306.875 1021.85 303.349V285.469V285.505ZM1012.52 338.361C1012.52 328.601 1017.9 320.766 1024.48 320.766C1090.3 320.944 1150.78 315.352 1206.17 305.059C1211.22 304.133 1215.28 310.152 1215.28 318.629V499.385C1215.28 507.861 1211.22 516.16 1206.17 517.905C1150.75 537.103 1090.3 552.418 1024.48 562.783C1017.9 563.815 1012.52 556.692 1012.52 546.933V338.325V338.361ZM982.599 283.724C982.599 280.127 984.629 277.349 987.122 277.491C992.821 277.847 998.484 278.168 1004.11 278.417C1006.57 278.524 1008.53 281.516 1008.53 285.042V303.064C1008.53 306.626 1006.57 309.44 1004.11 309.368C998.484 309.226 992.821 309.012 987.122 308.763C984.629 308.656 982.599 305.664 982.599 302.031V283.689V283.724ZM941.212 280.554C941.212 276.886 943.349 274.072 945.985 274.321C952.004 274.891 957.988 275.39 963.9 275.888C966.464 276.102 968.53 279.201 968.53 282.834V301.319C968.53 304.987 966.464 307.801 963.9 307.623C957.988 307.267 952.004 306.875 945.985 306.448C943.349 306.234 941.212 303.1 941.212 299.396V280.59V280.554ZM897.581 275.853C897.581 272.077 899.825 269.264 902.603 269.584C908.943 270.368 915.247 271.116 921.516 271.793C924.223 272.077 926.396 275.354 926.396 279.094V298.078C926.396 301.818 924.223 304.631 921.516 304.418C915.247 303.848 908.979 303.242 902.603 302.601C899.825 302.316 897.581 299.004 897.581 295.193V275.853ZM851.493 269.584C851.493 265.702 853.879 262.888 856.8 263.316C863.496 264.313 870.156 265.31 876.781 266.201C879.666 266.592 881.946 270.047 881.946 273.858V293.376C881.946 297.223 879.666 300.072 876.781 299.716C870.192 298.933 863.532 298.113 856.8 297.223C853.844 296.831 851.493 293.376 851.493 289.458V269.584ZM802.734 261.642C802.734 257.653 805.262 254.803 808.361 255.373C815.449 256.62 822.501 257.831 829.482 259.006C832.509 259.505 834.931 263.138 834.931 267.056V287.143C834.931 291.097 832.509 293.946 829.482 293.483C822.501 292.45 815.449 291.382 808.361 290.278C805.227 289.779 802.734 286.146 802.734 282.121V261.677V261.642ZM751.089 251.918C751.089 247.787 753.76 244.973 757.073 245.65C764.588 247.181 772.067 248.642 779.476 250.066C782.681 250.672 785.246 254.483 785.281 258.507V279.165C785.281 283.261 782.717 286.075 779.476 285.541C772.067 284.258 764.588 282.941 757.073 281.587C753.76 280.982 751.089 277.171 751.089 273.004V251.918ZM986.909 320.053C993.783 320.303 999.268 328.388 999.268 338.254V548.678C999.268 558.544 993.747 567.27 986.909 568.125C910.938 577.706 827.06 581.197 734.456 579.06C725.089 578.846 717.431 569.158 717.431 557.511V308.407C717.431 296.76 725.089 288.782 734.456 290.491C827.096 307.481 910.938 317.453 986.909 320.053ZM696.203 240.343C696.203 236.104 699.017 233.255 702.543 234.039C710.557 235.819 718.464 237.565 726.335 239.239C729.755 239.987 732.461 243.94 732.461 248.107V269.406C732.461 273.609 729.719 276.458 726.335 275.782C718.464 274.25 710.557 272.683 702.543 271.045C699.017 270.332 696.203 266.308 696.203 262.034V240.307V240.343ZM637.863 226.808C637.863 222.428 640.89 219.578 644.63 220.504C653.143 222.57 661.584 224.6 669.954 226.559C673.587 227.414 676.472 231.617 676.472 235.891V257.831C676.472 262.176 673.587 265.025 669.954 264.242C661.584 262.425 653.143 260.573 644.63 258.686C640.89 257.831 637.863 253.628 637.863 249.176V226.773V226.808ZM575.711 211.208C575.711 206.685 578.917 203.835 582.906 204.868C591.988 207.255 600.964 209.57 609.904 211.849C613.786 212.847 616.849 217.227 616.849 221.68V244.332C616.849 248.82 613.75 251.669 609.904 250.779C600.999 248.677 591.988 246.54 582.906 244.368C578.917 243.406 575.711 238.954 575.711 234.395V211.244V211.208ZM509.322 193.435C509.322 188.77 512.741 185.885 517.015 187.06C526.703 189.767 536.319 192.402 545.829 194.967C549.961 196.107 553.273 200.737 553.273 205.296V228.696C553.273 233.326 549.961 236.211 545.829 235.178C536.319 232.792 526.703 230.334 517.015 227.841C512.741 226.737 509.322 222.071 509.322 217.334V193.4V193.435ZM438.266 173.419C438.266 168.575 441.934 165.69 446.529 167.008C456.929 170.035 467.187 172.991 477.409 175.912C481.825 177.194 485.351 182.038 485.351 186.775V210.994C485.351 215.767 481.825 218.688 477.409 217.512C467.222 214.805 456.929 212.063 446.529 209.249C441.97 208.003 438.266 203.088 438.266 198.208V173.454V173.419ZM362.046 151.016C362.046 145.994 365.999 143.073 370.914 144.569C382.062 147.953 393.104 151.265 404.038 154.506C408.775 155.931 412.551 161.06 412.551 165.975V191.049C412.551 196 408.775 198.92 404.038 197.603C393.104 194.575 382.062 191.476 370.914 188.342C365.999 186.953 362.046 181.789 362.046 176.695V151.016ZM280.056 126.084C280.056 120.884 284.294 117.928 289.601 119.566C301.604 123.306 313.5 126.974 325.254 130.607C330.347 132.174 334.407 137.588 334.407 142.681V168.682C334.407 173.81 330.347 176.767 325.254 175.306C313.5 171.923 301.604 168.504 289.601 164.977C284.294 163.446 280.056 157.961 280.056 152.725V126.084ZM280.056 204.868C280.056 190.408 291.845 182.038 306.234 186.098C446.565 225.704 570.44 257.546 680.746 280.091C690.576 282.121 698.483 293.198 698.483 304.987V556.692C698.483 568.481 690.576 577.706 680.746 577.314C570.44 572.506 446.6 560.503 306.234 543.443C291.845 541.662 280.056 528.484 280.056 514.023V204.868ZM280.056 570.583C280.056 565.383 284.294 561.607 289.601 562.213C301.604 563.566 313.5 564.92 325.254 566.202C330.347 566.772 334.407 571.366 334.407 576.459V602.495C334.407 607.589 330.347 611.364 325.254 610.937C313.5 609.868 301.604 608.8 289.601 607.66C284.294 607.161 280.056 602.495 280.056 597.295V570.618V570.583ZM191.619 560.467C191.619 555.054 196.213 551.171 201.912 551.884C214.877 553.451 227.699 554.982 240.378 556.478C245.863 557.12 250.244 561.963 250.244 567.235V594.268C250.244 599.539 245.863 603.457 240.378 602.923C227.699 601.676 214.877 600.394 201.912 599.076C196.213 598.506 191.619 593.591 191.619 588.177V560.432V560.467ZM95.9875 548.963C95.9875 543.336 100.974 539.347 107.171 540.13C121.204 541.911 135.059 543.656 148.807 545.33C154.755 546.078 159.492 551.136 159.492 556.656V584.758C159.492 590.243 154.755 594.268 148.807 593.627C135.095 592.202 121.204 590.742 107.171 589.246C100.974 588.569 96.0232 583.44 95.9875 577.813V548.928V548.963Z" fill="url(#paint0_linear_64_3241)"/>
<path d="M1915.51 313.927V229.266C1915.51 225.277 1916.4 222.997 1917.51 224.137C1918.33 224.992 1919.18 225.847 1920 226.702V325.004C1919.18 324.292 1918.33 323.58 1917.51 322.832C1916.4 321.87 1915.51 317.916 1915.51 313.927Z" fill="#333333"/>
<path d="M1871.92 186.312C1871.92 182.074 1872.95 179.581 1874.2 180.72C1887.09 192.759 1899.45 205.474 1911.34 217.762C1912.45 218.902 1913.34 223.069 1913.34 227.022V312.004C1913.34 315.993 1912.45 318.415 1911.34 317.454C1899.45 307.089 1887.09 296.333 1874.2 286.36C1872.95 285.398 1871.92 281.16 1871.92 276.922V186.241V186.312Z" fill="#333333"/>
<path d="M1821.66 148.023C1821.66 143.464 1822.84 140.472 1824.3 141.363C1839.22 150.659 1853.47 161.949 1867.11 174.237C1868.39 175.377 1869.42 179.758 1869.42 184.032V275.033C1869.42 279.307 1868.39 281.978 1867.11 281.017C1853.47 270.937 1839.19 261.926 1824.3 255.016C1822.84 254.34 1821.66 250.137 1821.66 245.542V147.988V148.023Z" fill="#333333"/>
<path d="M1763.14 125.585C1763.14 120.635 1764.53 116.895 1766.21 117.251C1783.59 120.955 1800.22 127.544 1816.07 136.52C1817.53 137.375 1818.74 141.755 1818.74 146.35V244.296C1818.74 248.891 1817.57 252.097 1816.07 251.491C1800.22 245.08 1783.59 241.127 1766.21 240.236C1764.5 240.129 1763.14 236.105 1763.14 231.154V125.55V125.585Z" fill="#333333"/>
<path d="M1694.15 127.153C1694.15 121.774 1695.79 117.109 1697.82 116.752C1718.37 113.226 1738 112.763 1756.66 115.541C1758.41 115.791 1759.8 120.065 1759.8 125.016V231.083C1759.8 236.033 1758.41 240.058 1756.66 240.058C1738 240.272 1718.37 243.905 1697.82 250.708C1695.79 251.384 1694.15 247.573 1694.15 242.195V127.153Z" fill="#333333"/>
<path d="M1611.56 155.253C1611.56 149.341 1613.55 143.678 1615.97 142.645C1640.66 132.102 1664.13 123.875 1686.42 118.96C1688.49 118.497 1690.13 122.557 1690.13 127.971V243.583C1690.13 248.997 1688.45 253.983 1686.42 254.767C1664.13 263.279 1640.66 275.282 1615.97 289.778C1613.55 291.203 1611.56 287.57 1611.56 281.658V155.253Z" fill="#333333"/>
<path d="M1510.9 205.261C1510.9 198.707 1513.33 192.154 1516.32 190.658C1546.66 175.378 1575.19 160.846 1602.19 148.701C1604.68 147.597 1606.68 151.515 1606.68 157.463V284.508C1606.68 290.456 1604.68 296.475 1602.19 298.007C1575.16 314.498 1546.63 333.588 1516.32 353.747C1513.33 355.742 1510.9 352.038 1510.9 345.449V205.261Z" fill="#333333"/>
<path d="M1385.53 265.026C1385.53 257.653 1388.6 250.459 1392.37 248.892C1430.52 233.042 1466.06 215.839 1499.4 199.17C1502.46 197.639 1504.96 201.735 1504.96 208.36V349.367C1504.96 355.956 1502.5 362.937 1499.4 364.967C1466.06 386.978 1430.52 409.916 1392.37 431.856C1388.6 434.028 1385.53 429.79 1385.53 422.417V265.026Z" fill="#333333"/>
<path d="M1225.11 316.527C1225.11 308.122 1229.1 300.5 1233.98 299.431C1283.21 288.604 1328.76 274.001 1371 257.51C1374.88 256.014 1378.02 260.751 1378.02 268.16V426.584C1378.02 433.992 1374.88 441.756 1371 443.893C1328.76 467.187 1283.21 489.091 1233.98 507.826C1229.1 509.678 1225.11 504.335 1225.11 495.93V316.492V316.527Z" fill="#333333"/>
<path d="M1012.52 338.361C1012.52 328.602 1017.9 320.766 1024.48 320.766C1090.3 320.944 1150.78 315.352 1206.17 305.059C1211.22 304.133 1215.28 310.152 1215.28 318.629V499.385C1215.28 507.861 1211.22 516.16 1206.17 517.905C1150.75 537.103 1090.3 552.418 1024.48 562.783C1017.9 563.816 1012.52 556.692 1012.52 546.933V338.325V338.361Z" fill="#333333"/>
<path d="M717.396 308.443C717.396 296.796 725.053 288.818 734.42 290.527C827.06 307.517 910.902 317.489 986.873 320.089C993.747 320.339 999.232 328.424 999.232 338.29V548.714C999.232 558.58 993.711 567.306 986.873 568.161C910.902 577.742 827.024 581.233 734.42 579.096C725.053 578.882 717.396 569.194 717.396 557.547V308.443Z" fill="#333333"/>
<path d="M280.056 204.868C280.056 190.407 291.845 182.037 306.234 186.097C446.565 225.703 570.44 257.545 680.746 280.09C690.576 282.121 698.483 293.197 698.483 304.987V556.691C698.483 568.48 690.576 577.705 680.746 577.313C570.44 572.505 446.6 560.502 306.234 543.442C291.845 541.697 280.056 528.483 280.056 514.022V204.868Z" fill="#333333"/>
<path d="M0.0356445 502.839V96.415C79.0695 120.065 153.331 142.112 223.282 162.378C238.526 166.794 250.814 182.181 250.814 196.89V509.963C250.814 524.673 238.562 534.966 223.282 533.007C153.331 523.96 79.0695 513.809 0.0356445 502.839Z" fill="#333333"/>
<defs>
<linearGradient id="paint0_linear_64_3241" x1="960" y1="0" x2="960" y2="646.966" gradientUnits="userSpaceOnUse">
<stop stop-color="#F5914A"/>
<stop offset="0.318162" stop-color="#F5914A"/>
<stop offset="0.573071" stop-color="#A46E48"/>
<stop offset="0.830503" stop-color="#4B3F36"/>
<stop offset="1" stop-color="#333333"/>
</linearGradient>
</defs>
</svg>
