<svg width="104" height="71" viewBox="0 0 104 71" fill="none" xmlns="http://www.w3.org/2000/svg">
<path d="M90.56 30.7798C90.5598 13.7806 76.7791 0 59.7798 0C42.7804 0.000176491 28.9998 13.7809 29 30.7802C29 38.9435 32.243 46.7725 38.0153 52.5449C40.8703 55.4074 44.2629 57.6775 47.998 59.2247C51.7332 60.7718 55.7373 61.5654 59.7802 61.56C76.7796 61.5598 90.5602 47.7791 90.56 30.7798ZM71.4215 17.3243C74.2073 15.7084 77.7756 16.6567 79.3915 19.4424C81.0075 22.2281 80.0592 25.7964 77.2734 27.4124C74.4879 29.0283 70.9198 28.0802 69.3036 25.2947C67.6916 22.5084 68.639 18.9429 71.4215 17.3243ZM48.1595 44.2214C45.3739 45.8373 41.8058 44.8892 40.1897 42.1037C38.5736 39.3181 39.5217 35.7496 42.3072 34.1335L42.3076 34.1333C45.0933 32.5174 48.6616 33.4657 50.2776 36.2514C51.8935 39.0371 50.9452 42.6054 48.1595 44.2214ZM50.2774 25.309C48.6613 28.0945 45.0931 29.0426 42.3076 27.4267C39.525 25.8081 38.5776 22.2426 40.1897 19.4564C41.8058 16.6708 45.3741 15.7227 48.1599 17.3388C50.9456 18.9549 51.8935 22.5232 50.2774 25.309ZM59.7802 53.4273C56.5598 53.4273 53.9489 50.8167 53.9489 47.5961C53.9489 44.3755 56.5596 41.7648 59.7802 41.7648C63.0008 41.7648 65.6114 44.3755 65.6114 47.5961C65.6114 50.8167 63.0008 53.4273 59.7802 53.4273ZM55.4244 30.78C55.4244 28.3744 57.3746 26.4242 59.7802 26.4242C62.1858 26.4242 64.136 28.3744 64.136 30.78C64.136 33.1856 62.1858 35.1358 59.7802 35.1358C57.3746 35.1358 55.4244 33.1856 55.4244 30.78ZM59.7802 19.7952C56.5598 19.7952 53.9489 17.1844 53.9489 13.964C53.9489 10.7435 56.5596 8.1327 59.7802 8.1327C63.0008 8.1327 65.6114 10.7434 65.6114 13.964C65.6114 17.1846 63.0008 19.7952 59.7802 19.7952ZM79.3913 42.125C77.7752 44.9106 74.2071 45.8587 71.4215 44.2427C68.6339 42.6289 67.6799 39.0624 69.2895 36.2724H69.3036C70.9198 33.4867 74.4881 32.5387 77.2738 34.1549C80.0595 35.771 81.0075 39.3393 79.3913 42.125ZM102.908 60.7129C102.341 59.5913 101.6 58.5667 100.712 57.6772C99.6836 56.6336 98.4912 55.7656 97.1821 55.1075C93.9559 53.4909 89.6707 52.9896 84.7148 55.4464C83.2701 56.1497 81.7709 56.7352 80.232 57.1972C76.0521 60.4416 71.1584 62.6416 65.9574 63.6144C70.652 64.3203 75.7914 63.812 80.2955 63.3814C82.5708 63.1124 84.8593 62.9686 87.1504 62.9508C92.191 63.0778 91.9156 68.4149 91.8662 69.0079C91.8291 69.2713 91.8671 69.5399 91.9759 69.7826C92.0846 70.0254 92.2598 70.2324 92.4811 70.38C92.7024 70.5275 92.961 70.6096 93.2269 70.6166C93.4928 70.6237 93.7553 70.5555 93.9841 70.4199L102.759 65.3369C102.999 65.1983 103.193 64.9921 103.317 64.7439C103.818 63.7344 103.663 62.2519 102.908 60.7129Z" fill="white" fill-opacity="0.5"/>
<mask id="mask0_67_323" style="mask-type:luminance" maskUnits="userSpaceOnUse" x="0" y="7" width="58" height="58">
<path d="M0 7H58V65H0V7Z" fill="white"/>
<path d="M57.9999 65V7.00005H0V65H57.9999ZM1.81251 8.81256H56.1874V63.1875H1.81251V8.81256Z" fill="white"/>
</mask>
<g mask="url(#mask0_67_323)">
<path d="M40.9101 20.6663C40.9101 27.2436 35.577 32.5767 28.9997 32.5767C22.4224 32.5767 17.0894 27.2436 17.0894 20.6663C17.0894 14.0879 22.4224 8.75589 28.9997 8.75588C33.3873 8.75588 37.2216 11.128 39.2896 14.6644C39.5422 15.0965 40.0973 15.2419 40.5294 14.9892C40.9614 14.7366 41.1068 14.1816 40.8542 13.7496C38.4747 9.68031 34.0576 6.94338 28.9997 6.94338C21.4215 6.94338 15.2769 13.0868 15.2769 20.6663C15.2769 28.2446 21.4214 34.3892 28.9997 34.3892C36.5781 34.3892 42.7226 28.2446 42.7226 20.6663C42.7226 19.6463 42.6112 18.6501 42.3973 17.6913C42.2883 17.2028 41.804 16.8951 41.3155 17.0041C40.827 17.1131 40.5193 17.5974 40.6283 18.0859C40.8131 18.9147 40.9101 19.7786 40.9101 20.6663Z" fill="#5E3B22"/>
<path d="M32.6712 16.0887C32.6712 18.1161 31.0276 19.7597 29.0001 19.7598C26.9727 19.7598 25.3291 18.1161 25.3291 16.0887C25.3291 14.0612 26.9727 12.4177 29.0001 12.4177C31.0276 12.4177 32.6711 14.0613 32.6712 16.0887ZM34.4837 16.0887C34.4837 13.0603 32.0286 10.6052 29.0001 10.6052C25.9716 10.6052 23.5166 13.0603 23.5166 16.0887C23.5166 19.1171 25.9716 21.5723 29.0001 21.5723C32.0286 21.5722 34.4837 19.1171 34.4837 16.0887Z" fill="#5E3B22"/>
<path d="M29 30.7271C32.946 30.727 36.3628 28.4436 38.0099 25.1365C38.1638 24.8276 38.1288 24.4582 37.9197 24.1836C35.8746 21.4974 32.6404 19.76 29 19.76C25.3597 19.76 22.1254 21.4974 20.0802 24.1836C19.8712 24.4582 19.8362 24.8276 19.9901 25.1365C21.6371 28.4437 25.054 30.7271 29 30.7271ZM29 28.9145C25.9746 28.9145 23.3221 27.2752 21.8861 24.8332C23.6097 22.8353 26.157 21.5725 29 21.5725C31.843 21.5725 34.3903 22.8353 36.1139 24.8332C34.6778 27.2751 32.0255 28.9145 29 28.9145Z" fill="#5E3B22"/>
<path d="M56.2441 51.3337C56.2441 57.9122 50.9122 63.2441 44.3337 63.2441C37.7564 63.2441 32.4233 57.9121 32.4233 51.3337C32.4233 44.7564 37.7564 39.4234 44.3337 39.4234C47.2295 39.4234 49.8818 40.4555 51.9452 42.1735C52.3298 42.4938 52.9013 42.4417 53.2216 42.0571C53.5418 41.6724 53.4896 41.101 53.105 40.7808C50.7277 38.8013 47.6684 37.6109 44.3337 37.6109C36.7554 37.6109 30.6108 43.7554 30.6108 51.3337C30.6108 58.9133 36.7555 65.0566 44.3337 65.0566C51.9132 65.0566 58.0566 58.9132 58.0566 51.3337C58.0566 48.6195 57.2681 46.0866 55.9055 43.9547C55.6359 43.533 55.0756 43.4097 54.6539 43.6793C54.2321 43.9488 54.1087 44.5092 54.3783 44.9309C55.56 46.7797 56.2441 48.9753 56.2441 51.3337Z" fill="#5E3B22"/>
<path d="M48.0047 46.7566C48.0047 48.7841 46.3612 50.4277 44.3337 50.4277C42.3063 50.4277 40.6626 48.7841 40.6626 46.7566C40.6626 44.7292 42.3063 43.0857 44.3337 43.0857C46.3612 43.0857 48.0046 44.7291 48.0047 46.7566ZM49.8172 46.7566C49.8172 43.7281 47.3622 41.2732 44.3337 41.2732C41.3053 41.2732 38.8501 43.7281 38.8501 46.7566C38.8501 49.7851 41.3053 52.2402 44.3337 52.2402C47.3623 52.2402 49.8172 49.785 49.8172 46.7566Z" fill="#5E3B22"/>
<path d="M44.334 61.3945C48.28 61.3945 51.6968 59.1111 53.3439 55.804C53.4977 55.4951 53.4628 55.1257 53.2537 54.8511C51.2085 52.1649 47.9744 50.4275 44.334 50.4275C40.6936 50.4275 37.4594 52.1649 35.4142 54.8511C35.2052 55.1257 35.1702 55.4951 35.324 55.804C36.9711 59.1111 40.388 61.3945 44.334 61.3945ZM44.334 59.582C41.3086 59.582 38.6561 57.9427 37.2201 55.5007C38.9437 53.5027 41.491 52.24 44.334 52.24C47.177 52.24 49.7243 53.5028 51.4479 55.5007C50.0118 57.9426 47.3594 59.582 44.334 59.582Z" fill="#5E3B22"/>
<path d="M25.5766 51.3337C25.5766 57.9121 20.2436 63.2441 13.6663 63.2441C7.08782 63.2441 1.75587 57.9122 1.75586 51.3337C1.75586 50.5729 1.82752 49.8297 1.96429 49.1091C2.05758 48.6173 1.7346 48.1431 1.24289 48.0498C0.751157 47.9565 0.276851 48.2795 0.18353 48.7712C0.0257687 49.6025 -0.0566406 50.4588 -0.0566406 51.3337C-0.0566402 58.9132 6.0868 65.0566 13.6663 65.0566C21.2445 65.0566 27.3891 58.9133 27.3891 51.3337C27.3891 43.7554 21.2446 37.6109 13.6663 37.6109C8.45794 37.6109 3.92939 40.5127 1.60552 44.7834C1.36632 45.2231 1.52876 45.7734 1.96838 46.0126C2.408 46.2518 2.95831 46.0894 3.19755 45.6498C5.21688 41.9387 9.14823 39.4234 13.6663 39.4234C20.2436 39.4234 25.5766 44.7564 25.5766 51.3337Z" fill="#5E3B22"/>
<path d="M17.3372 46.7566C17.3372 48.784 15.6936 50.4277 13.6662 50.4277C11.6387 50.4277 9.99512 48.7841 9.99512 46.7566C9.99514 44.7291 11.6387 43.0857 13.6662 43.0857C15.6936 43.0857 17.3372 44.7292 17.3372 46.7566ZM19.1497 46.7566C19.1497 43.7281 16.6946 41.2732 13.6662 41.2732C10.6377 41.2732 8.18264 43.7281 8.18262 46.7566C8.18262 49.7851 10.6376 52.2402 13.6662 52.2402C16.6946 52.2402 19.1497 49.7851 19.1497 46.7566Z" fill="#5E3B22"/>
<path d="M13.666 61.3945C17.6121 61.3945 21.0288 59.1111 22.6759 55.804C22.8298 55.4951 22.7948 55.1257 22.5858 54.8511C20.5406 52.1649 17.3064 50.4275 13.666 50.4275C10.0257 50.4275 6.79141 52.1649 4.74623 54.8511C4.53719 55.1257 4.50223 55.4951 4.65607 55.804C6.30316 59.1111 9.72003 61.3945 13.666 61.3945ZM13.666 59.582C10.6406 59.582 7.98817 57.9427 6.55209 55.5007C8.27568 53.5027 10.8231 52.24 13.666 52.24C16.509 52.24 19.0563 53.5028 20.7799 55.5007C19.3438 57.9426 16.6915 59.582 13.666 59.582Z" fill="#5E3B22"/>
<path d="M28.0938 33.4821V39.5471L28.0942 39.5771C28.1044 39.8858 28.2715 40.169 28.5385 40.327L34.1457 43.6455C34.5764 43.9004 35.1322 43.7578 35.3871 43.3271C35.642 42.8964 35.4995 42.3406 35.0688 42.0857L29.9063 39.0305V33.4821C29.9062 32.9816 29.5005 32.5759 29 32.5759C28.4995 32.5759 28.0938 32.9816 28.0938 33.4821Z" fill="#5E3B22"/>
<path d="M22.6128 43.3276C22.8677 43.7583 23.4235 43.9009 23.8542 43.646L29.4615 40.3274C29.8922 40.0725 30.0347 39.5167 29.7798 39.086C29.5249 38.6552 28.969 38.5127 28.5383 38.7676L22.9312 42.0862C22.5005 42.3411 22.3579 42.8969 22.6128 43.3276Z" fill="#5E3B22"/>
</g>
</svg>
