<svg width="17" height="18" viewBox="0 0 17 18" fill="none" xmlns="http://www.w3.org/2000/svg">
<path d="M16.7282 16.3566L12.3678 11.962C13.5097 10.6914 14.2112 9.01095 14.2112 7.16183C14.2107 3.20621 11.0297 0 7.10535 0C3.18104 0 0 3.20621 0 7.16183C0 11.1174 3.18104 14.3237 7.10535 14.3237C8.80092 14.3237 10.3561 13.723 11.5776 12.7243L15.9548 17.1363C16.1681 17.3515 16.5144 17.3515 16.7277 17.1363C16.9414 16.9211 16.9414 16.5718 16.7282 16.3566ZM7.10535 13.2218C3.78495 13.2218 1.09326 10.5086 1.09326 7.16183C1.09326 3.81501 3.78495 1.10189 7.10535 1.10189C10.4258 1.10189 13.1174 3.81501 13.1174 7.16183C13.1174 10.5086 10.4258 13.2218 7.10535 13.2218Z" fill="#666666"/>
</svg>
