<svg width="17" height="20" viewBox="0 0 17 20" fill="none" xmlns="http://www.w3.org/2000/svg">
<path d="M13.2501 9.11956C13.17 9.08116 13.0886 9.04421 13.0062 9.00882C12.8627 6.36383 11.4174 4.84957 8.99061 4.83408C8.97962 4.83401 8.96868 4.83401 8.95769 4.83401C7.50616 4.83401 6.29894 5.45359 5.55591 6.58104L6.89056 7.49659C7.44564 6.65443 8.31677 6.47489 8.95833 6.47489C8.96574 6.47489 8.97318 6.47489 8.98051 6.47496C9.77956 6.48006 10.3825 6.71238 10.7728 7.16544C11.0568 7.49528 11.2467 7.95109 11.3408 8.52633C10.6323 8.40592 9.86615 8.3689 9.04709 8.41586C6.73982 8.54876 5.25652 9.89441 5.35614 11.7642C5.40669 12.7127 5.8792 13.5287 6.68657 14.0617C7.3692 14.5123 8.24837 14.7327 9.1621 14.6828C10.3688 14.6166 11.3154 14.1562 11.9758 13.3144C12.4774 12.6751 12.7946 11.8467 12.9346 10.8028C13.5097 11.1498 13.9359 11.6065 14.1713 12.1556C14.5715 13.0888 14.5948 14.6224 13.3435 15.8727C12.2471 16.968 10.9292 17.4419 8.93749 17.4565C6.72815 17.4401 5.05724 16.7316 3.97087 15.3505C2.95357 14.0573 2.42783 12.1895 2.40821 9.79872C2.42783 7.40796 2.95357 5.54006 3.97087 4.24687C5.05724 2.86584 6.72812 2.1573 8.93746 2.14089C11.1628 2.15743 12.8629 2.86937 13.9908 4.25707C14.5439 4.93758 14.9609 5.79338 15.2358 6.7912L16.7998 6.37391C16.4666 5.1457 15.9423 4.08734 15.2288 3.20961C13.7828 1.43052 11.6679 0.518902 8.94292 0.5H8.93201C6.21259 0.518837 4.12139 1.43392 2.71653 3.21981C1.4664 4.80903 0.82154 7.02031 0.799872 9.79218L0.799805 9.79872L0.799872 9.80526C0.82154 12.5771 1.4664 14.7885 2.71653 16.3777C4.12139 18.1635 6.21259 19.0787 8.93201 19.0974H8.94292C11.3606 19.0807 13.0648 18.4477 14.4687 17.045C16.3055 15.21 16.2502 12.9098 15.6448 11.4978C15.2105 10.4852 14.3824 9.66275 13.2501 9.11956ZM9.07571 13.0443C8.06448 13.1012 7.01391 12.6473 6.96211 11.6751C6.92371 10.9543 7.4751 10.1499 9.13777 10.0541C9.32818 10.0431 9.51503 10.0378 9.69858 10.0378C10.3025 10.0378 10.8675 10.0964 11.3812 10.2087C11.1896 12.6014 10.0658 12.9899 9.07571 13.0443Z" fill="#737373"/>
</svg>
