<svg width="14" height="17" viewBox="0 0 14 17" fill="none" xmlns="http://www.w3.org/2000/svg">
<path d="M6.89414 8.18899C8.0046 8.18899 8.96606 7.78547 9.75189 6.98936C10.5375 6.19341 10.9359 5.2195 10.9359 4.09438C10.9359 2.96959 10.5376 1.99557 9.75176 1.19933C8.96593 0.403484 8.00447 0 6.89414 0C5.78352 0 4.82215 0.403484 4.03648 1.19946C3.25082 1.99544 2.85238 2.96949 2.85238 4.09438C2.85238 5.2195 3.25078 6.19354 4.03652 6.98952C4.82244 7.78537 5.78391 8.18899 6.89411 8.18899H6.89414ZM4.73192 1.90387C5.33477 1.2931 6.04201 0.996227 6.89414 0.996227C7.74614 0.996227 8.45347 1.2931 9.05646 1.90387C9.65934 2.51474 9.95251 3.23133 9.95251 4.09434C9.95251 4.95762 9.65934 5.67412 9.05646 6.28499C8.45347 6.89589 7.74614 7.19276 6.89414 7.19276C6.04224 7.19276 5.33507 6.89576 4.73192 6.28499C4.12891 5.67425 3.83574 4.95766 3.83574 4.09438C3.83574 3.23133 4.12891 2.51474 4.73192 1.90387ZM13.9661 13.0722C13.9434 12.7409 13.8976 12.3796 13.8301 11.998C13.762 11.6136 13.6743 11.2501 13.5693 10.918C13.4608 10.5747 13.3134 10.2357 13.131 9.91073C12.9418 9.57352 12.7196 9.27987 12.4702 9.03826C12.2094 8.78548 11.8902 8.58224 11.5209 8.43396C11.153 8.28654 10.7452 8.21183 10.3091 8.21183C10.1377 8.21183 9.9721 8.28302 9.65216 8.49406C9.42474 8.64409 9.19664 8.79306 8.96787 8.94097C8.74805 9.08288 8.45026 9.21583 8.08244 9.33619C7.72359 9.45383 7.35924 9.51349 6.99948 9.51349C6.64001 9.51349 6.27562 9.45383 5.91651 9.33619C5.54911 9.21593 5.2512 9.08301 5.03174 8.9411C4.77708 8.77625 4.54668 8.62581 4.34682 8.49389C4.02714 8.28288 3.86147 8.21166 3.69019 8.21166C3.25387 8.21166 2.84625 8.2865 2.47843 8.43412C2.10945 8.58211 1.79003 8.78535 1.52899 9.03839C1.27961 9.28014 1.05736 9.57362 0.868388 9.91073C0.686228 10.2356 0.538744 10.5745 0.430163 10.9181C0.325285 11.2503 0.237614 11.6136 0.169509 11.998C0.101895 12.3791 0.0562079 12.7405 0.0335281 13.0726C0.0112416 13.3972 0 13.7351 0 14.0764C0 14.9639 0.27845 15.6822 0.827551 16.2121C1.36987 16.7349 2.08733 17 2.96004 17H11.04C11.9124 17 12.6299 16.7349 13.1723 16.2121C13.7215 15.6826 14 14.964 14 14.0763C13.9999 13.7338 13.9885 13.3959 13.9661 13.0722ZM12.4943 15.4903C12.136 15.8358 11.6602 16.0038 11.0398 16.0038H2.96008C2.33956 16.0038 1.86381 15.8358 1.50559 15.4905C1.15418 15.1515 0.983393 14.6889 0.983393 14.0764C0.983393 13.7579 0.993749 13.4434 1.01453 13.1414C1.03472 12.8452 1.07608 12.5198 1.13743 12.174C1.19797 11.8325 1.27502 11.512 1.36669 11.2219C1.45465 10.9437 1.57461 10.6682 1.72337 10.4028C1.86535 10.1499 2.0287 9.93291 2.20895 9.7581C2.37758 9.59454 2.59012 9.4607 2.84052 9.36033C3.0721 9.26742 3.33239 9.21659 3.61494 9.20892C3.64935 9.22751 3.71071 9.26291 3.81004 9.32852C4.0122 9.46199 4.24519 9.61426 4.50279 9.78091C4.79318 9.96847 5.16723 10.1378 5.61417 10.284C6.07108 10.4337 6.5371 10.5097 6.99964 10.5097C7.46222 10.5097 7.92833 10.4337 8.38501 10.2841C8.83231 10.1377 9.20627 9.96847 9.49704 9.78064C9.76064 9.60998 9.98711 9.46213 10.1892 9.32852C10.2886 9.26301 10.3499 9.22748 10.3844 9.20895C10.6671 9.21659 10.9273 9.26742 11.159 9.36029C11.4093 9.4607 11.6219 9.59467 11.7905 9.75807C11.9707 9.93278 12.1341 10.1498 12.276 10.403C12.4249 10.6682 12.5451 10.9438 12.6329 11.2218C12.7247 11.5123 12.8018 11.8326 12.8623 12.1739C12.9235 12.5203 12.965 12.8459 12.9852 13.1416V13.1418C13.0061 13.4426 13.0165 13.757 13.0167 14.0764C13.0165 14.689 12.8458 15.1515 12.4943 15.4903H12.4943Z" fill="#666666"/>
</svg>
