<svg width="23" height="14" viewBox="0 0 23 14" fill="none" xmlns="http://www.w3.org/2000/svg">
<path d="M22.1523 2.27691C21.8953 1.487 21.1421 0.86432 20.187 0.651622C18.442 0.256836 11.4621 0.256836 11.4621 0.256836C11.4621 0.256836 4.48243 0.256836 2.73749 0.636654C1.80071 0.849128 1.02915 1.48711 0.772192 2.27691C0.312988 3.71965 0.312988 6.71172 0.312988 6.71172C0.312988 6.71172 0.312988 9.71887 0.772192 11.1465C1.02942 11.9363 1.78233 12.559 2.73762 12.7717C4.50081 13.1666 11.4624 13.1666 11.4624 13.1666C11.4624 13.1666 18.442 13.1666 20.187 12.7868C21.1423 12.5742 21.8953 11.9515 22.1525 11.1617C22.6116 9.71887 22.6116 6.72692 22.6116 6.72692C22.6116 6.72692 22.63 3.71965 22.1523 2.27691ZM9.23984 9.4759V3.94755L15.044 6.71172L9.23984 9.4759Z" fill="#E9BC25"/>
</svg>
