<svg width="33" height="34" viewBox="0 0 33 34" fill="none" xmlns="http://www.w3.org/2000/svg">
<path d="M16.5 0C25.6127 0 33 7.3873 33 16.5C32.9999 25.6126 25.6126 33 16.5 33C14.1219 33 11.8618 32.4954 9.81934 31.5898L5 34V28.3291C1.91683 25.3312 5.24905e-05 21.14 0 16.5C0 7.3873 7.3873 0 16.5 0Z" fill="white"/>
<path d="M24.3706 14.8193C25.2311 14.8193 25.9764 15.1332 26.6011 15.7578C27.2258 16.3825 27.5404 17.1294 27.5405 17.9932C27.5405 18.8603 27.2275 19.608 26.606 20.2295L26.605 20.2285C25.9836 20.8533 25.2377 21.168 24.3706 21.168C23.5172 21.168 22.777 20.8578 22.1558 20.2402V20.2393C21.5314 19.6218 21.2173 18.8853 21.2173 18.0352C21.2173 17.2683 21.4517 16.5943 21.9194 16.0166L22.1343 15.7744C22.7489 15.1385 23.4962 14.8193 24.3706 14.8193ZM24.3813 15.6934C23.7543 15.6934 23.2284 15.9258 22.7974 16.3936H22.7964C22.3748 16.8487 22.1646 17.3913 22.1646 18.0254C22.1646 18.6404 22.3793 19.1696 22.811 19.6182C23.2458 20.0696 23.7677 20.2939 24.3813 20.2939C25.0159 20.2939 25.5433 20.0646 25.9702 19.6045C26.3847 19.1533 26.5923 18.6075 26.5923 17.9619C26.5922 17.3469 26.3776 16.8177 25.9458 16.3691C25.511 15.9176 24.9913 15.6934 24.3813 15.6934Z" fill="#333333" stroke="#333333" stroke-width="0.2"/>
<path d="M20.2661 12.9004V21.0273H19.3188V12.9004H20.2661Z" fill="#333333" stroke="#333333" stroke-width="0.2"/>
<path d="M15.0103 14.8193C15.9575 14.8193 16.695 15.1494 17.2114 15.8115V15.4727H18.1646V21.0273H17.2114V20.1729C16.6824 20.836 15.9458 21.168 15.0103 21.168C14.1039 21.1679 13.3344 20.8646 12.7085 20.2568C12.0782 19.6482 11.7632 18.8878 11.7632 17.9834C11.7632 17.0852 12.082 16.3282 12.7192 15.7197C13.3485 15.1193 14.1142 14.8194 15.0103 14.8193ZM15.0103 15.6934C14.3415 15.6934 13.7946 15.9143 13.3618 16.3535C12.9285 16.7935 12.7104 17.345 12.7104 18.0146C12.7105 18.6725 12.9289 19.2145 13.3647 19.6475C13.8012 20.0772 14.3479 20.2939 15.0103 20.2939C15.6421 20.2939 16.1741 20.0691 16.6118 19.6182L16.7642 19.4473C17.0941 19.0382 17.2583 18.5581 17.2583 18.0039C17.2583 17.3705 17.0434 16.8306 16.6118 16.3789C16.174 15.921 15.6417 15.6934 15.0103 15.6934Z" fill="#333333" stroke="#333333" stroke-width="0.2"/>
<path d="M11.8018 12.9004L11.707 13.0527L11.2627 13.7725L7.46875 20.1104H11.7227V21.0273H5.82422L5.91406 20.876L10.1133 13.8213H5.90039V12.9004H11.8018Z" fill="#333333" stroke="#333333" stroke-width="0.2"/>
</svg>
